<?xml version="1.0" standalone="no"?>
<!DOCTYPE svg PUBLIC "-//W3C//DTD SVG 20010904//EN"
 "http://www.w3.org/TR/2001/REC-SVG-20010904/DTD/svg10.dtd">
<svg version="1.0" xmlns="http://www.w3.org/2000/svg"
 width="209.000000pt" height="300.000000pt" viewBox="0 0 209.000000 300.000000"
 preserveAspectRatio="xMidYMid meet">
<metadata>
Created by potrace 1.16, written by Peter Selinger 2001-2019
</metadata>
<g transform="translate(0.000000,300.000000) scale(0.100000,-0.100000)"
fill="#000000" stroke="none">
<path d="M1026 2991 c-3 -4 -27 -11 -53 -15 -106 -14 -241 -105 -297 -200 -57
-97 -57 -98 -54 -772 l3 -619 32 -66 c41 -84 118 -161 202 -202 63 -31 71 -32
186 -32 109 0 125 3 175 26 114 54 197 147 230 258 20 64 20 88 18 686 l-3
620 -27 58 c-35 75 -123 166 -192 200 -30 15 -60 27 -66 27 -6 0 -9 4 -5 9 3
5 0 13 -6 17 -8 5 -9 3 -4 -5 5 -10 -4 -11 -41 -6 -27 4 -53 11 -58 16 -13 11
-33 12 -40 0z"/>
<path d="M1378 2847 c18 -21 44 -61 58 -89 50 -99 54 -143 53 -673 0 -616 -5
-682 -52 -778 -20 -40 -49 -87 -66 -104 -16 -18 -26 -33 -22 -33 13 0 83 99
111 155 34 70 39 170 39 775 0 546 -2 563 -55 667 -15 28 -43 67 -62 85 l-36
33 32 -38z"/>
<path d="M1777 1431 c-17 -203 -154 -424 -338 -547 -179 -119 -399 -153 -595
-93 -94 29 -208 89 -270 143 l-51 45 -109 -110 -109 -110 45 -41 c108 -98 280
-189 430 -230 75 -20 109 -22 285 -22 194 -1 203 0 285 28 47 16 123 48 170
71 322 162 543 491 567 843 l6 92 -155 0 -155 0 -6 -69z"/>
</g>
</svg>
