<svg id="svg" version="1.1" xmlns="http://www.w3.org/2000/svg" xmlns:xlink="http://www.w3.org/1999/xlink" width="400" height="574.1626794258374" viewBox="0, 0, 400,574.1626794258374"><g id="svgg"><path id="path0" d="M-0.000 301.193 C -0.000 309.766,0.155 316.400,0.355 316.400 C 0.550 316.400,0.778 318.919,0.863 321.998 C 1.007 327.246,1.072 327.635,1.908 328.221 C 2.710 328.782,2.800 329.184,2.800 332.197 C 2.800 335.862,3.247 337.600,4.190 337.600 C 4.676 337.600,4.801 338.150,4.805 340.300 C 4.812 343.677,5.083 344.709,6.043 345.014 C 6.683 345.217,6.800 345.654,6.800 347.837 C 6.800 350.224,6.876 350.449,7.800 350.800 C 8.728 351.153,8.800 351.372,8.800 353.828 C 8.800 356.115,8.906 356.503,9.579 356.679 C 10.165 356.832,10.388 357.293,10.479 358.541 C 10.571 359.801,10.812 360.293,11.483 360.588 C 12.232 360.916,12.384 361.343,12.483 363.388 C 12.583 365.446,12.732 365.858,13.500 366.195 C 14.230 366.515,14.400 366.910,14.400 368.287 C 14.400 369.764,14.530 370.017,15.400 370.236 C 16.277 370.456,16.400 370.703,16.400 372.243 C 16.400 373.705,16.528 374.000,17.162 374.000 C 17.774 374.000,17.979 374.396,18.200 376.000 C 18.417 377.580,18.631 378.000,19.215 378.000 C 19.799 378.000,19.980 378.357,20.077 379.700 C 20.178 381.100,20.355 381.422,21.079 381.525 C 21.821 381.631,21.977 381.944,22.079 383.525 C 22.181 385.106,22.338 385.420,23.078 385.525 C 23.799 385.627,23.978 385.951,24.078 387.325 C 24.179 388.713,24.354 389.022,25.100 389.128 C 25.751 389.220,26.000 389.524,26.000 390.228 C 26.000 390.933,26.219 391.200,26.800 391.200 C 27.426 391.200,27.600 391.467,27.600 392.426 C 27.600 393.947,28.239 395.200,29.014 395.200 C 29.336 395.200,29.600 395.534,29.600 395.942 C 29.600 396.349,30.050 397.169,30.600 397.762 C 31.150 398.356,31.600 399.282,31.600 399.821 C 31.600 400.599,31.806 400.800,32.600 400.800 C 33.400 400.800,33.600 401.000,33.600 401.800 C 33.600 402.600,33.800 402.800,34.600 402.800 C 35.519 402.800,35.600 402.947,35.600 404.600 C 35.600 406.112,35.724 406.400,36.372 406.400 C 36.868 406.400,37.190 406.722,37.272 407.300 C 37.354 407.878,37.722 408.246,38.300 408.328 C 38.951 408.420,39.200 408.724,39.200 409.428 C 39.200 410.192,39.409 410.400,40.177 410.400 C 41.040 410.400,41.168 410.598,41.277 412.100 C 41.379 413.513,41.552 413.822,42.300 413.928 C 42.943 414.019,43.200 414.325,43.200 415.000 C 43.200 415.675,43.457 415.981,44.100 416.072 C 44.678 416.154,45.046 416.522,45.128 417.100 C 45.208 417.665,45.533 418.000,46.000 418.000 C 46.467 418.000,46.792 418.335,46.872 418.900 C 46.954 419.478,47.322 419.846,47.900 419.928 C 48.551 420.020,48.800 420.324,48.800 421.028 C 48.800 421.791,49.009 422.000,49.772 422.000 C 50.476 422.000,50.780 422.249,50.872 422.900 C 50.954 423.478,51.322 423.846,51.900 423.928 C 52.478 424.010,52.800 424.332,52.800 424.828 C 52.800 425.333,53.076 425.600,53.600 425.600 C 54.187 425.600,54.400 425.867,54.400 426.600 C 54.400 427.400,54.600 427.600,55.400 427.600 C 56.200 427.600,56.400 427.800,56.400 428.600 C 56.400 429.392,56.602 429.600,57.372 429.600 C 58.076 429.600,58.380 429.849,58.472 430.500 C 58.554 431.078,58.922 431.446,59.500 431.528 C 60.078 431.610,60.400 431.932,60.400 432.428 C 60.400 432.985,60.679 433.200,61.400 433.200 C 62.200 433.200,62.400 433.400,62.400 434.200 C 62.400 434.913,62.616 435.200,63.153 435.200 C 63.579 435.200,64.001 435.561,64.124 436.030 C 64.243 436.486,64.697 436.953,65.133 437.067 C 65.569 437.181,66.015 437.615,66.124 438.032 C 66.233 438.449,66.765 438.959,67.307 439.165 C 67.848 439.370,68.404 439.834,68.543 440.195 C 68.681 440.556,68.963 440.746,69.170 440.619 C 69.376 440.491,69.658 440.570,69.796 440.793 C 69.934 441.017,70.376 441.200,70.777 441.200 C 71.178 441.200,71.601 441.560,71.716 442.000 C 71.841 442.479,72.262 442.800,72.763 442.800 C 73.389 442.800,73.600 443.052,73.600 443.800 C 73.600 444.592,73.802 444.800,74.572 444.800 C 75.274 444.800,75.580 445.049,75.672 445.696 C 75.746 446.211,76.138 446.656,76.594 446.743 C 77.031 446.827,77.706 447.261,78.094 447.709 C 78.482 448.156,78.800 448.369,78.800 448.181 C 78.800 447.994,79.016 448.056,79.280 448.320 C 79.544 448.584,80.063 448.800,80.433 448.800 C 80.804 448.800,81.201 449.160,81.316 449.600 C 81.438 450.068,81.862 450.400,82.335 450.400 C 82.870 450.400,83.188 450.705,83.272 451.300 C 83.381 452.068,83.679 452.218,85.300 452.322 C 87.015 452.432,87.200 452.539,87.200 453.422 C 87.200 454.191,87.408 454.400,88.172 454.400 C 88.876 454.400,89.180 454.649,89.272 455.300 C 89.378 456.046,89.687 456.221,91.075 456.322 C 92.449 456.422,92.773 456.601,92.875 457.322 C 92.952 457.864,93.329 458.247,93.859 458.322 C 94.332 458.390,94.810 458.795,94.922 459.222 C 95.081 459.832,95.477 460.000,96.755 460.000 C 98.160 460.000,98.419 460.138,98.636 461.000 C 98.856 461.877,99.103 462.000,100.643 462.000 C 102.250 462.000,102.400 462.085,102.400 463.000 C 102.400 463.933,102.533 464.000,104.400 464.000 C 106.267 464.000,106.400 464.067,106.400 465.000 C 106.400 465.916,106.549 466.000,108.172 466.000 C 109.705 466.000,109.962 466.121,110.072 466.900 C 110.181 467.668,110.479 467.818,112.100 467.922 C 113.674 468.023,114.000 468.177,114.000 468.822 C 114.000 469.476,114.283 469.600,115.772 469.600 C 117.305 469.600,117.562 469.721,117.672 470.500 C 117.781 471.266,118.079 471.418,119.675 471.521 C 121.256 471.623,121.569 471.779,121.675 472.521 C 121.788 473.313,122.067 473.412,124.500 473.518 C 126.816 473.620,127.200 473.742,127.200 474.375 C 127.200 475.233,127.951 475.598,129.733 475.606 C 131.087 475.613,132.090 476.065,132.034 476.645 C 131.994 477.058,132.135 477.083,134.810 477.150 C 136.565 477.194,136.868 477.327,137.201 478.203 C 137.411 478.755,137.721 479.183,137.891 479.156 C 140.509 478.729,144.356 479.281,144.472 480.100 C 144.589 480.920,144.845 481.011,147.352 481.119 C 149.619 481.218,150.229 481.394,150.816 482.119 C 151.453 482.908,151.971 483.014,155.764 483.136 C 159.511 483.257,160.000 483.355,160.000 483.986 C 160.000 485.333,167.256 485.721,170.792 484.565 C 172.614 483.969,173.144 483.985,179.268 484.819 C 187.610 485.956,211.559 486.393,221.932 485.597 C 228.362 485.104,228.481 485.110,229.616 485.948 C 231.179 487.104,234.400 487.167,234.400 486.041 C 234.400 485.344,234.807 485.271,239.435 485.141 C 244.086 485.011,244.527 484.931,245.200 484.100 C 245.828 483.324,246.308 483.200,248.697 483.200 C 250.221 483.200,251.602 483.065,251.767 482.900 C 251.932 482.735,252.277 482.600,252.533 482.600 C 252.790 482.600,253.000 482.330,253.000 482.000 C 253.000 481.528,253.663 481.375,256.100 481.283 C 259.078 481.171,259.200 481.128,259.200 480.201 C 259.200 479.279,259.333 479.230,262.100 479.118 C 264.761 479.010,265.011 478.926,265.128 478.100 C 265.245 477.272,265.464 477.200,267.865 477.200 C 270.138 477.200,270.502 477.097,270.684 476.400 C 270.839 475.806,271.230 475.600,272.197 475.600 C 274.491 475.600,276.097 475.114,276.295 474.360 C 276.435 473.822,276.952 473.610,278.341 473.520 C 279.906 473.419,280.220 473.261,280.325 472.521 C 280.431 471.779,280.744 471.623,282.325 471.521 C 283.921 471.418,284.219 471.266,284.328 470.500 C 284.438 469.721,284.695 469.600,286.228 469.600 C 287.717 469.600,288.000 469.476,288.000 468.822 C 288.000 468.177,288.326 468.023,289.900 467.922 C 291.521 467.818,291.819 467.668,291.928 466.900 C 292.038 466.121,292.295 466.000,293.828 466.000 C 295.441 466.000,295.600 465.912,295.600 465.022 C 295.600 464.139,295.785 464.032,297.500 463.922 C 299.121 463.818,299.419 463.668,299.528 462.900 C 299.638 462.121,299.895 462.000,301.428 462.000 C 303.051 462.000,303.200 461.916,303.200 461.000 C 303.200 460.200,303.400 460.000,304.200 460.000 C 304.924 460.000,305.200 459.785,305.200 459.222 C 305.200 458.577,305.526 458.423,307.100 458.322 C 308.721 458.218,309.019 458.068,309.128 457.300 C 309.215 456.687,309.533 456.395,310.128 456.386 C 311.228 456.368,312.771 455.528,312.674 455.000 C 312.633 454.780,313.095 454.543,313.700 454.473 C 314.564 454.374,314.800 454.138,314.800 453.373 C 314.800 452.602,315.007 452.400,315.800 452.400 C 316.600 452.400,316.800 452.200,316.800 451.400 C 316.800 450.481,316.947 450.400,318.600 450.400 C 320.112 450.400,320.400 450.276,320.400 449.628 C 320.400 449.132,320.722 448.810,321.300 448.728 C 321.878 448.646,322.246 448.278,322.328 447.700 C 322.420 447.049,322.724 446.800,323.428 446.800 C 324.198 446.800,324.400 446.592,324.400 445.800 C 324.400 444.899,324.559 444.800,326.009 444.800 C 327.336 444.800,327.697 444.625,328.073 443.800 C 328.323 443.250,328.860 442.800,329.264 442.800 C 329.724 442.800,330.000 442.511,330.000 442.028 C 330.000 441.532,330.322 441.210,330.900 441.128 C 331.478 441.046,331.846 440.678,331.928 440.100 C 332.020 439.449,332.324 439.200,333.028 439.200 C 333.791 439.200,334.000 438.991,334.000 438.228 C 334.000 437.524,334.249 437.220,334.900 437.128 C 335.478 437.046,335.846 436.678,335.928 436.100 C 336.010 435.522,336.332 435.200,336.828 435.200 C 337.385 435.200,337.600 434.921,337.600 434.200 C 337.600 433.412,337.803 433.200,338.557 433.200 C 339.084 433.200,339.619 432.927,339.747 432.594 C 339.950 432.065,341.607 431.131,342.513 431.034 C 342.686 431.015,343.060 430.550,343.346 430.000 C 343.632 429.450,344.076 429.045,344.333 429.100 C 344.756 429.191,344.972 428.688,344.847 427.900 C 344.821 427.735,344.980 427.600,345.200 427.600 C 345.420 427.600,345.600 427.150,345.600 426.600 C 345.600 425.867,345.813 425.600,346.400 425.600 C 346.933 425.600,347.200 425.333,347.200 424.800 C 347.200 424.213,347.467 424.000,348.200 424.000 C 349.000 424.000,349.200 423.800,349.200 423.000 C 349.200 422.200,349.400 422.000,350.200 422.000 C 350.992 422.000,351.200 421.798,351.200 421.028 C 351.200 420.324,351.449 420.020,352.100 419.928 C 352.670 419.847,353.046 419.479,353.125 418.925 C 353.202 418.379,353.579 418.002,354.125 417.925 C 354.679 417.846,355.047 417.470,355.128 416.900 C 355.210 416.322,355.532 416.000,356.028 416.000 C 356.575 416.000,356.800 415.722,356.800 415.043 C 356.800 414.357,357.082 414.016,357.800 413.836 C 358.657 413.621,358.800 413.357,358.800 411.992 C 358.800 410.561,358.901 410.400,359.800 410.400 C 360.592 410.400,360.800 410.198,360.800 409.428 C 360.800 408.724,361.049 408.420,361.700 408.328 C 362.278 408.246,362.646 407.878,362.728 407.300 C 362.810 406.722,363.132 406.400,363.628 406.400 C 364.276 406.400,364.400 406.112,364.400 404.600 C 364.400 402.947,364.481 402.800,365.400 402.800 C 366.192 402.800,366.400 402.598,366.400 401.828 C 366.400 401.124,366.649 400.820,367.300 400.728 C 368.046 400.622,368.221 400.313,368.322 398.925 C 368.422 397.551,368.601 397.227,369.322 397.125 C 369.872 397.047,370.247 396.671,370.325 396.119 C 370.394 395.634,370.790 395.130,371.204 394.999 C 371.730 394.832,372.037 394.223,372.224 392.980 C 372.431 391.597,372.659 391.200,373.245 391.200 C 373.871 391.200,374.000 390.898,374.000 389.428 C 374.000 387.895,374.121 387.638,374.900 387.528 C 375.487 387.444,375.846 387.078,375.931 386.476 C 376.003 385.967,376.363 385.440,376.731 385.305 C 377.687 384.953,377.987 384.381,377.994 382.900 C 377.999 381.869,378.165 381.600,378.800 381.600 C 379.240 381.600,379.623 381.330,379.650 381.000 C 379.678 380.670,379.745 380.220,379.800 380.000 C 379.855 379.780,379.923 379.150,379.950 378.600 C 379.985 377.905,380.230 377.600,380.753 377.600 C 381.521 377.600,381.984 376.592,381.995 374.900 C 381.998 374.400,382.248 374.000,382.557 374.000 C 383.255 374.000,383.600 373.129,383.600 371.367 C 383.600 370.433,383.786 370.000,384.186 370.000 C 385.072 370.000,385.600 368.677,385.600 366.454 C 385.600 364.686,385.704 364.441,386.500 364.328 C 387.268 364.219,387.418 363.921,387.522 362.300 C 387.620 360.774,387.787 360.400,388.372 360.400 C 389.170 360.400,389.600 358.998,389.600 356.397 C 389.600 355.230,389.779 354.846,390.400 354.684 C 391.097 354.502,391.200 354.138,391.200 351.865 C 391.200 349.464,391.272 349.245,392.100 349.128 C 392.926 349.011,393.010 348.761,393.118 346.100 C 393.219 343.588,393.334 343.200,393.975 343.200 C 394.991 343.200,395.200 342.443,395.200 338.767 C 395.200 335.937,395.280 335.600,395.950 335.600 C 396.911 335.600,397.200 334.203,397.200 329.550 C 397.200 326.346,397.273 326.000,397.950 326.000 C 398.952 326.000,399.200 324.603,399.200 318.950 C 399.200 316.183,399.357 314.400,399.600 314.400 C 399.859 314.400,400.000 309.400,400.000 300.200 L 400.000 286.000 370.043 286.000 C 343.095 286.000,340.061 286.064,339.843 286.633 C 339.709 286.981,339.600 291.289,339.600 296.206 C 339.600 304.795,339.569 305.156,338.800 305.400 C 338.064 305.634,338.000 306.005,338.000 310.056 C 338.000 313.435,337.861 314.597,337.400 315.057 C 337.070 315.387,336.797 315.509,336.794 315.329 C 336.791 315.148,336.613 315.270,336.400 315.600 C 336.187 315.930,336.009 317.552,336.006 319.205 C 336.001 321.935,335.918 322.246,335.100 322.605 C 334.314 322.950,334.185 323.343,334.082 325.700 C 333.980 328.011,333.858 328.400,333.228 328.400 C 332.361 328.400,332.013 329.453,332.005 332.100 C 332.001 333.692,331.878 334.000,331.247 334.000 C 330.429 334.000,330.014 335.020,330.005 337.051 C 330.002 337.761,329.697 338.539,329.300 338.851 C 328.651 339.360,328.644 339.342,329.200 338.600 C 329.756 337.858,329.749 337.840,329.100 338.349 C 328.575 338.761,328.400 339.486,328.400 341.249 C 328.400 343.490,328.353 343.600,327.400 343.600 C 326.484 343.600,326.400 343.749,326.400 345.372 C 326.400 346.905,326.279 347.162,325.500 347.272 C 324.732 347.381,324.582 347.679,324.478 349.300 C 324.368 351.015,324.261 351.200,323.378 351.200 C 322.629 351.200,322.400 351.412,322.400 352.104 C 322.400 352.601,322.062 353.218,321.650 353.476 C 321.237 353.734,320.783 354.567,320.640 355.328 C 320.470 356.236,320.109 356.783,319.590 356.918 C 318.948 357.086,318.800 357.469,318.800 358.963 C 318.800 360.656,318.722 360.800,317.800 360.800 C 317.008 360.800,316.800 361.002,316.800 361.772 C 316.800 362.476,316.551 362.780,315.900 362.872 C 315.011 362.998,314.937 363.168,314.846 365.272 C 314.812 366.062,314.563 366.378,313.900 366.472 C 313.322 366.554,312.954 366.922,312.872 367.500 C 312.792 368.066,312.467 368.400,311.999 368.400 C 311.483 368.400,311.214 368.739,311.127 369.500 C 311.057 370.105,310.820 370.570,310.600 370.534 C 309.809 370.403,309.200 371.323,309.200 372.649 C 309.200 373.823,309.069 374.000,308.200 374.000 C 307.400 374.000,307.200 374.200,307.200 375.000 C 307.200 375.800,307.000 376.000,306.200 376.000 C 305.400 376.000,305.200 376.200,305.200 377.000 C 305.200 377.730,304.986 378.000,304.408 378.000 C 303.896 378.000,303.526 378.354,303.364 379.000 C 303.207 379.626,302.830 380.000,302.357 380.000 C 301.881 380.000,301.600 380.281,301.600 380.757 C 301.600 381.230,301.226 381.607,300.600 381.764 C 299.981 381.920,299.600 382.299,299.600 382.761 C 299.600 383.179,299.236 383.602,298.770 383.724 C 298.314 383.843,297.843 384.314,297.724 384.770 C 297.604 385.227,297.187 385.600,296.797 385.600 C 296.373 385.600,295.986 386.003,295.836 386.600 C 295.678 387.230,295.302 387.600,294.820 387.600 C 294.332 387.600,294.009 387.925,293.928 388.500 C 293.846 389.078,293.478 389.446,292.900 389.528 C 292.335 389.608,292.000 389.933,292.000 390.400 C 292.000 390.867,291.665 391.192,291.100 391.272 C 290.522 391.354,290.154 391.722,290.072 392.300 C 289.980 392.951,289.676 393.200,288.972 393.200 C 288.202 393.200,288.000 393.408,288.000 394.200 C 288.000 395.000,287.800 395.200,287.000 395.200 C 286.200 395.200,286.000 395.400,286.000 396.200 C 286.000 396.957,285.781 397.211,285.100 397.246 C 283.229 397.342,283.002 397.413,283.091 397.872 C 283.141 398.132,282.556 398.551,281.791 398.803 C 280.869 399.107,280.400 399.512,280.400 400.003 C 280.400 400.467,280.064 400.792,279.500 400.872 C 278.929 400.953,278.554 401.321,278.475 401.878 C 278.373 402.599,278.049 402.778,276.675 402.878 C 275.287 402.979,274.978 403.154,274.872 403.900 C 274.780 404.551,274.476 404.800,273.772 404.800 C 273.087 404.800,272.800 405.022,272.800 405.553 C 272.800 406.327,271.790 406.784,270.063 406.795 C 269.464 406.798,269.049 407.089,268.916 407.600 C 268.801 408.040,268.378 408.400,267.977 408.400 C 267.576 408.400,267.134 408.583,266.996 408.807 C 266.858 409.030,266.583 409.113,266.385 408.991 C 266.188 408.869,265.797 409.136,265.517 409.584 C 265.237 410.033,264.601 410.400,264.104 410.400 C 263.412 410.400,263.200 410.629,263.200 411.378 C 263.200 412.261,263.015 412.368,261.300 412.478 C 259.679 412.582,259.381 412.732,259.272 413.500 C 259.162 414.279,258.905 414.400,257.372 414.400 C 255.867 414.400,255.600 414.520,255.600 415.200 C 255.600 415.835,255.332 416.001,254.300 416.004 C 251.604 416.014,250.000 416.471,250.000 417.230 C 250.000 417.812,249.624 417.980,248.100 418.078 C 246.479 418.182,246.181 418.332,246.072 419.100 C 245.954 419.934,245.742 420.000,243.172 420.000 C 240.495 420.000,240.400 420.034,240.400 420.983 C 240.400 421.933,240.294 421.970,237.300 422.083 C 235.272 422.160,234.200 422.361,234.200 422.667 C 234.200 422.923,234.036 423.283,233.836 423.467 C 233.624 423.660,233.592 423.590,233.759 423.300 C 233.918 423.025,233.857 422.800,233.624 422.800 C 233.391 422.800,233.200 423.070,233.200 423.400 C 233.200 423.886,232.559 424.000,229.833 424.000 C 226.124 424.000,225.200 424.208,225.200 425.043 C 225.200 425.484,224.307 425.601,220.900 425.604 C 215.220 425.610,213.600 425.887,213.600 426.852 C 213.600 427.568,213.016 427.600,200.000 427.600 C 186.984 427.600,186.400 427.568,186.400 426.852 C 186.400 425.860,184.780 425.610,178.300 425.604 C 173.468 425.600,173.200 425.558,173.200 424.800 C 173.200 424.057,172.933 424.000,169.428 424.000 C 165.820 424.000,165.650 423.961,165.528 423.100 C 165.411 422.277,165.158 422.190,162.588 422.084 C 160.129 421.983,159.727 421.858,159.388 421.084 C 159.057 420.329,158.635 420.183,156.500 420.081 C 155.032 420.011,154.000 419.781,154.000 419.525 C 154.000 418.651,152.553 418.025,150.500 418.013 C 148.715 418.002,148.400 417.887,148.400 417.247 C 148.400 416.449,147.384 416.015,145.500 416.005 C 144.668 416.001,144.400 415.805,144.400 415.200 C 144.400 414.508,144.133 414.400,142.428 414.400 C 140.687 414.400,140.441 414.294,140.328 413.500 C 140.202 412.615,140.031 412.538,137.968 412.446 C 137.305 412.417,136.743 412.042,136.400 411.400 C 135.992 410.638,135.545 410.400,134.523 410.400 C 133.459 410.400,133.101 410.192,132.800 409.400 C 132.481 408.562,132.159 408.400,130.810 408.400 C 129.493 408.400,129.200 408.261,129.200 407.638 C 129.200 407.026,128.804 406.821,127.200 406.600 C 125.596 406.379,125.200 406.174,125.200 405.562 C 125.200 405.081,124.921 404.800,124.443 404.800 C 123.970 404.800,123.593 404.426,123.436 403.800 C 123.215 402.919,122.971 402.800,121.392 402.800 C 119.747 402.800,119.600 402.718,119.600 401.800 C 119.600 401.008,119.398 400.800,118.628 400.800 C 117.924 400.800,117.620 400.551,117.528 399.900 C 117.446 399.322,117.078 398.954,116.500 398.872 C 115.922 398.790,115.600 398.468,115.600 397.972 C 115.600 397.324,115.312 397.200,113.800 397.200 C 112.147 397.200,112.000 397.119,112.000 396.200 C 112.000 395.400,111.800 395.200,111.000 395.200 C 110.200 395.200,110.000 395.000,110.000 394.200 C 110.000 393.400,109.800 393.200,109.000 393.200 C 108.200 393.200,108.000 393.000,108.000 392.200 C 108.000 391.467,107.787 391.200,107.200 391.200 C 106.751 391.200,106.400 390.933,106.400 390.591 C 106.400 390.257,105.965 389.785,105.434 389.543 C 104.903 389.301,104.379 388.764,104.271 388.351 C 104.161 387.928,103.721 387.600,103.265 387.600 C 102.730 387.600,102.412 387.295,102.328 386.700 C 102.219 385.932,101.921 385.782,100.300 385.678 C 98.585 385.568,98.400 385.461,98.400 384.578 C 98.400 383.878,98.180 383.600,97.628 383.600 C 97.132 383.600,96.810 383.278,96.728 382.700 C 96.647 382.133,96.279 381.754,95.731 381.676 C 95.066 381.582,94.801 381.187,94.599 379.993 C 94.427 378.977,94.077 378.351,93.593 378.198 C 93.185 378.068,92.794 377.566,92.725 377.081 C 92.647 376.530,92.272 376.153,91.725 376.075 C 91.179 375.998,90.802 375.621,90.725 375.075 C 90.646 374.521,90.270 374.153,89.700 374.072 C 89.049 373.980,88.800 373.676,88.800 372.972 C 88.800 372.267,88.581 372.000,88.000 372.000 C 87.467 372.000,87.200 371.733,87.200 371.200 C 87.200 370.618,86.933 370.400,86.222 370.400 C 85.339 370.400,85.232 370.215,85.122 368.500 C 85.018 366.879,84.868 366.581,84.100 366.472 C 83.449 366.380,83.200 366.076,83.200 365.372 C 83.200 364.602,82.992 364.400,82.200 364.400 C 81.281 364.400,81.200 364.253,81.200 362.600 C 81.200 361.088,81.076 360.800,80.428 360.800 C 79.932 360.800,79.610 360.478,79.528 359.900 C 79.447 359.329,79.079 358.954,78.521 358.875 C 77.779 358.769,77.623 358.456,77.521 356.875 C 77.418 355.279,77.266 354.981,76.500 354.872 C 75.721 354.762,75.600 354.505,75.600 352.972 C 75.600 351.359,75.512 351.200,74.622 351.200 C 73.739 351.200,73.632 351.015,73.522 349.300 C 73.418 347.679,73.268 347.381,72.500 347.272 C 71.721 347.162,71.600 346.905,71.600 345.372 C 71.600 343.867,71.480 343.600,70.800 343.600 C 70.120 343.600,70.000 343.333,70.000 341.824 C 70.000 340.847,69.817 339.934,69.593 339.796 C 69.370 339.658,69.261 339.422,69.351 339.272 C 69.442 339.123,69.265 338.768,68.958 338.484 C 68.651 338.201,68.371 338.111,68.335 338.284 C 68.299 338.458,68.164 337.610,68.035 336.400 C 67.833 334.508,67.674 334.182,66.900 334.072 C 66.065 333.954,66.000 333.743,66.000 331.154 C 66.000 328.711,65.876 328.239,65.000 327.364 C 64.123 326.486,64.000 326.018,64.000 323.544 C 64.000 321.120,63.894 320.698,63.247 320.528 C 62.572 320.352,62.477 319.812,62.327 315.314 C 62.177 310.787,62.077 310.230,61.307 309.607 C 60.480 308.937,60.451 308.584,60.327 297.891 C 60.257 291.827,60.050 286.716,59.867 286.533 C 59.684 286.350,46.139 286.152,29.767 286.093 L -0.000 285.985 -0.000 301.193 " stroke="none" fill="#f06228" fill-rule="evenodd"></path><path id="path1" d="M179.726 0.551 C 179.895 0.992,179.325 1.092,176.869 1.051 C 174.071 1.004,173.766 1.077,173.416 1.875 C 173.204 2.357,172.664 2.852,172.216 2.975 C 171.612 3.142,171.533 3.286,171.914 3.532 C 172.196 3.715,172.317 4.151,172.182 4.502 C 172.000 4.976,172.218 5.174,173.028 5.270 C 176.033 5.627,175.108 7.642,171.814 7.915 C 169.310 8.123,168.682 6.918,170.400 5.200 C 170.840 4.760,171.020 4.400,170.800 4.400 C 170.580 4.400,170.400 4.141,170.400 3.824 C 170.400 3.015,169.717 2.684,168.617 2.960 C 167.867 3.148,167.696 3.435,167.763 4.398 C 167.808 5.059,167.701 5.600,167.523 5.600 C 167.345 5.600,167.200 5.420,167.200 5.200 C 167.200 4.980,166.390 4.800,165.400 4.800 C 164.410 4.800,163.621 4.935,163.647 5.100 C 163.851 6.389,163.526 6.800,162.300 6.806 C 161.314 6.811,161.145 6.906,161.600 7.200 C 162.113 7.531,162.098 7.589,161.500 7.594 C 161.115 7.597,160.800 7.409,160.800 7.176 C 160.800 6.943,160.620 6.864,160.400 7.000 C 160.180 7.136,160.000 7.597,160.000 8.024 C 160.000 8.653,159.716 8.801,158.500 8.806 C 156.806 8.813,156.200 9.128,156.200 10.000 C 156.200 10.442,155.738 10.600,154.441 10.600 C 153.002 10.600,152.608 10.764,152.280 11.500 C 152.059 11.995,151.526 12.400,151.096 12.400 C 150.471 12.400,150.362 12.592,150.553 13.354 C 150.794 14.316,149.991 15.457,149.452 14.918 C 148.814 14.281,146.162 14.492,146.568 15.148 C 146.883 15.657,146.156 16.438,145.308 16.502 C 144.857 16.536,144.562 16.757,144.653 16.993 C 144.743 17.230,144.530 17.778,144.179 18.211 C 143.828 18.645,143.653 18.777,143.791 18.505 C 143.958 18.174,143.828 18.091,143.398 18.256 C 143.044 18.392,142.849 18.750,142.964 19.052 C 143.080 19.353,142.990 19.600,142.764 19.600 C 142.538 19.600,142.464 19.780,142.600 20.000 C 142.740 20.227,142.404 20.400,141.824 20.400 C 141.067 20.400,140.800 20.608,140.800 21.200 C 140.800 21.786,140.533 22.000,139.805 22.000 C 139.011 22.000,138.829 22.182,138.905 22.900 C 138.981 23.617,138.772 23.826,137.880 23.929 C 136.988 24.031,136.784 24.235,136.880 24.929 C 136.969 25.574,136.766 25.833,136.100 25.928 C 135.542 26.007,135.200 26.333,135.200 26.785 C 135.200 27.549,134.188 28.163,133.564 27.778 C 133.364 27.654,133.200 28.013,133.200 28.576 C 133.200 29.545,132.861 29.781,131.694 29.628 C 131.415 29.592,131.212 29.706,131.241 29.881 C 131.410 30.882,131.106 31.576,130.401 31.800 C 129.961 31.939,129.492 32.491,129.358 33.027 C 129.223 33.562,128.875 34.000,128.584 34.000 C 127.962 34.000,127.400 35.322,127.246 37.147 C 127.218 37.483,126.902 37.615,126.426 37.491 C 125.518 37.254,125.286 37.718,125.421 39.499 C 125.476 40.213,125.357 40.697,125.157 40.574 C 124.958 40.450,124.687 40.630,124.555 40.972 C 124.424 41.315,124.127 41.478,123.895 41.335 C 123.627 41.170,123.557 41.391,123.701 41.943 C 123.899 42.699,122.603 44.040,122.067 43.634 C 121.993 43.579,121.813 43.667,121.667 43.831 C 121.520 43.994,121.580 44.028,121.800 43.906 C 122.020 43.784,122.460 43.965,122.779 44.309 C 123.292 44.865,123.257 44.908,122.464 44.701 C 121.644 44.486,121.579 44.593,121.663 46.023 C 121.714 46.878,121.602 47.718,121.414 47.889 C 121.226 48.060,121.186 47.885,121.324 47.500 C 121.629 46.650,121.216 46.605,120.176 47.375 C 119.414 47.940,119.414 47.961,120.161 48.514 C 120.752 48.953,120.805 49.150,120.399 49.401 C 120.054 49.614,119.973 49.567,120.162 49.262 C 120.319 49.008,120.237 48.800,119.980 48.800 C 119.685 48.800,119.603 49.159,119.758 49.775 C 119.893 50.312,119.819 50.864,119.595 51.003 C 119.371 51.142,119.283 51.410,119.400 51.600 C 119.517 51.790,119.402 52.075,119.145 52.234 C 118.852 52.415,118.784 52.350,118.962 52.062 C 119.119 51.808,119.076 51.600,118.866 51.600 C 118.230 51.600,117.866 52.899,117.951 54.867 C 117.998 55.963,117.834 56.855,117.554 57.029 C 117.252 57.215,117.182 57.153,117.362 56.862 C 117.681 56.345,117.229 56.256,116.569 56.706 C 116.159 56.986,115.821 60.287,115.912 63.110 C 115.936 63.838,115.787 64.316,115.577 64.186 C 115.370 64.058,115.200 64.143,115.200 64.376 C 115.200 64.609,115.009 64.800,114.776 64.800 C 114.543 64.800,114.464 64.620,114.600 64.400 C 114.736 64.180,114.644 64.000,114.396 64.000 C 114.103 64.000,113.966 64.876,114.004 66.500 C 114.122 71.491,113.994 74.043,113.636 73.822 C 113.436 73.699,113.025 73.692,112.723 73.808 C 112.008 74.082,111.782 78.000,112.480 78.000 C 112.853 78.000,112.853 78.107,112.480 78.480 C 111.587 79.373,111.805 292.647,112.700 293.168 C 113.360 293.552,113.358 293.576,112.674 293.588 C 111.571 293.606,111.926 296.887,113.138 297.873 C 113.969 298.548,114.033 298.931,114.047 303.255 C 114.061 307.673,114.112 307.953,115.031 308.752 C 116.053 309.640,116.138 309.975,116.038 312.700 C 116.004 313.635,116.162 314.423,116.388 314.450 C 116.615 314.478,117.025 314.523,117.300 314.552 C 117.768 314.600,117.877 315.286,117.966 318.737 C 117.991 319.722,118.211 320.130,118.800 320.284 C 119.526 320.474,119.668 320.691,119.566 321.455 C 119.547 321.596,119.772 321.863,120.066 322.049 C 120.507 322.329,120.505 322.389,120.051 322.394 C 119.586 322.399,119.586 322.503,120.051 323.077 C 120.525 323.661,120.518 323.705,120.000 323.400 C 119.482 323.095,119.475 323.139,119.949 323.723 C 120.251 324.095,120.746 324.400,121.049 324.400 C 121.435 324.400,121.600 324.938,121.600 326.200 C 121.600 327.853,121.681 328.000,122.600 328.000 C 123.583 328.000,123.799 328.533,123.703 330.727 C 123.690 331.017,124.102 331.446,124.618 331.681 C 125.134 331.916,125.654 332.363,125.773 332.675 C 125.893 332.987,125.815 333.133,125.600 333.000 C 125.378 332.863,125.312 333.027,125.447 333.379 C 125.578 333.721,126.026 334.000,126.443 334.000 C 126.960 334.000,127.202 334.286,127.205 334.900 C 127.216 336.565,127.676 337.616,128.348 337.506 C 128.796 337.433,129.040 337.745,129.127 338.500 C 129.226 339.364,129.462 339.600,130.227 339.600 C 130.998 339.600,131.200 339.807,131.200 340.600 C 131.200 341.400,131.400 341.600,132.200 341.600 C 133.000 341.600,133.200 341.800,133.200 342.600 C 133.200 343.411,133.397 343.600,134.243 343.600 C 134.995 343.600,135.223 343.763,135.060 344.187 C 134.936 344.510,135.014 344.885,135.234 345.021 C 135.453 345.156,135.516 345.635,135.373 346.084 C 135.196 346.644,135.259 346.811,135.575 346.616 C 136.191 346.235,137.200 347.116,137.200 348.036 C 137.200 348.498,137.406 348.696,137.748 348.564 C 138.050 348.449,138.409 348.646,138.546 349.002 C 138.682 349.359,138.974 349.540,139.193 349.405 C 139.422 349.263,139.491 349.420,139.355 349.774 C 139.197 350.184,139.450 350.515,140.116 350.768 C 142.343 351.615,143.918 349.838,141.798 348.872 C 141.246 348.620,140.817 348.277,140.845 348.107 C 140.959 347.404,140.783 346.684,140.552 346.914 C 140.248 347.219,139.448 346.445,139.090 345.500 C 138.944 345.115,138.562 344.800,138.240 344.800 C 137.919 344.800,137.598 344.395,137.528 343.900 C 137.448 343.335,137.079 342.954,136.538 342.877 C 136.013 342.802,135.579 342.372,135.430 341.777 C 135.295 341.240,134.933 340.800,134.625 340.800 C 134.108 340.800,133.157 339.358,131.942 336.729 C 131.670 336.140,131.031 335.469,130.523 335.238 C 130.004 335.001,129.600 334.465,129.600 334.012 C 129.600 333.569,129.240 332.982,128.800 332.707 C 128.266 332.374,128.000 331.774,128.000 330.904 C 128.000 330.187,127.820 329.578,127.600 329.550 C 127.380 329.523,127.035 329.478,126.833 329.450 C 126.120 329.353,125.871 328.787,125.923 327.388 C 125.967 326.231,125.790 325.887,124.954 325.506 C 124.072 325.104,123.951 324.831,124.076 323.520 C 124.220 322.015,123.828 321.682,122.252 321.969 C 122.060 322.004,122.031 321.015,122.186 319.771 C 122.342 318.528,122.318 317.599,122.134 317.708 C 121.330 318.184,119.980 317.219,120.178 316.309 C 120.842 313.266,120.808 312.400,120.026 312.400 C 118.849 312.400,118.001 311.320,118.208 310.085 C 118.308 309.488,118.470 308.391,118.568 307.646 C 119.003 304.351,120.462 305.193,120.729 308.893 C 120.861 310.715,121.168 311.736,121.855 312.637 C 122.380 313.325,122.800 314.428,122.800 315.120 C 122.800 315.804,123.250 317.028,123.800 317.838 C 124.350 318.649,124.800 319.799,124.800 320.394 C 124.800 320.989,125.160 321.802,125.600 322.200 C 126.040 322.598,126.400 323.141,126.400 323.406 C 126.400 323.671,126.850 324.551,127.400 325.362 C 127.950 326.172,128.400 327.071,128.400 327.359 C 128.400 327.647,128.850 328.369,129.400 328.962 C 129.950 329.556,130.400 330.369,130.400 330.770 C 130.400 331.171,131.049 332.197,131.842 333.050 C 133.142 334.448,133.952 335.533,136.078 338.726 C 136.451 339.285,137.036 339.900,137.378 340.092 C 137.720 340.283,138.000 340.632,138.000 340.867 C 138.000 341.599,146.336 349.444,148.426 350.679 C 149.071 351.060,149.600 351.514,149.600 351.686 C 149.600 351.859,149.819 352.000,150.086 352.000 C 150.353 352.000,150.938 352.347,151.386 352.772 C 153.887 355.142,154.510 355.600,155.237 355.600 C 155.678 355.600,156.455 356.050,156.965 356.600 C 157.475 357.150,158.248 357.600,158.684 357.600 C 159.119 357.600,159.999 358.050,160.638 358.600 C 161.277 359.149,162.091 359.599,162.446 359.600 C 162.801 359.600,163.521 359.934,164.046 360.342 C 164.571 360.750,165.670 361.207,166.489 361.358 C 167.307 361.509,168.207 361.956,168.489 362.353 C 168.788 362.775,169.730 363.171,170.761 363.307 C 171.730 363.435,173.028 363.914,173.645 364.370 C 174.349 364.890,175.375 365.200,176.397 365.200 C 177.293 365.200,178.680 365.473,179.480 365.808 L 180.934 366.415 180.084 367.208 C 178.983 368.234,174.032 368.389,173.950 367.400 C 173.923 367.070,173.877 366.575,173.848 366.300 C 173.815 365.982,173.361 365.859,172.598 365.963 C 169.203 366.424,168.206 366.251,168.081 365.178 C 167.954 364.091,167.375 363.952,162.900 363.931 C 161.353 363.924,160.999 363.674,161.153 362.700 C 161.179 362.535,161.016 362.400,160.790 362.400 C 160.565 362.400,160.209 361.950,160.000 361.400 C 159.581 360.297,158.149 360.039,157.221 360.900 C 156.850 361.244,156.766 361.252,156.950 360.925 C 157.097 360.663,156.988 360.303,156.708 360.125 C 156.429 359.946,156.200 359.530,156.200 359.200 C 156.200 358.852,155.830 358.595,155.321 358.588 C 154.838 358.581,154.315 358.448,154.158 358.291 C 154.002 358.135,153.632 358.207,153.337 358.452 C 152.942 358.780,152.800 358.779,152.800 358.449 C 152.800 358.202,152.575 358.045,152.300 358.100 C 152.025 358.155,151.845 357.975,151.900 357.700 C 152.055 356.923,148.965 353.533,148.238 353.684 C 147.997 353.734,147.313 353.450,146.718 353.053 C 146.122 352.656,145.447 352.447,145.218 352.589 C 144.969 352.743,144.800 352.433,144.800 351.824 C 144.800 350.802,143.170 350.278,142.643 351.131 C 142.183 351.874,142.912 353.200,143.780 353.200 C 144.940 353.200,145.301 353.597,144.748 354.263 C 144.394 354.689,144.519 354.800,145.351 354.800 C 146.355 354.800,146.587 355.138,146.418 356.352 C 146.364 356.738,146.645 356.846,147.350 356.712 C 148.395 356.512,149.049 357.274,148.539 358.098 C 148.390 358.339,148.465 358.407,148.711 358.255 C 148.949 358.108,149.258 358.170,149.396 358.393 C 149.534 358.617,150.286 358.800,151.066 358.800 C 152.089 358.800,152.428 358.950,152.280 359.336 C 152.167 359.631,152.235 360.126,152.431 360.436 C 152.735 360.917,152.789 360.915,152.794 360.420 C 152.799 359.969,152.907 359.947,153.280 360.320 C 153.544 360.584,153.932 360.800,154.141 360.800 C 154.351 360.800,154.107 360.440,153.600 360.000 C 153.093 359.560,152.863 359.200,153.090 359.200 C 153.733 359.200,154.573 360.403,154.587 361.346 C 154.598 362.059,154.897 362.233,156.401 362.400 C 157.961 362.573,158.195 362.720,158.155 363.500 C 158.118 364.239,158.319 364.400,159.278 364.400 C 159.956 364.400,160.343 364.232,160.200 364.000 C 160.064 363.780,160.066 363.600,160.205 363.600 C 160.626 363.600,161.600 364.713,161.600 365.195 C 161.600 365.444,161.778 365.537,161.995 365.403 C 162.222 365.263,162.289 365.423,162.153 365.779 C 161.959 366.284,162.253 366.400,163.730 366.400 C 165.211 366.400,165.594 366.552,165.807 367.222 C 165.950 367.674,166.278 367.968,166.534 367.876 C 166.790 367.784,167.337 367.882,167.748 368.094 C 168.274 368.365,168.416 368.349,168.225 368.040 C 168.070 367.789,168.231 367.600,168.600 367.600 C 168.969 367.600,169.130 367.789,168.975 368.040 C 168.784 368.349,168.956 368.345,169.552 368.026 C 170.111 367.727,170.400 367.713,170.400 367.986 C 170.400 368.214,170.681 368.400,171.024 368.400 C 171.367 368.400,171.558 368.544,171.450 368.719 C 170.956 369.519,172.056 370.081,174.404 370.229 C 176.360 370.353,177.042 370.568,177.484 371.199 C 178.144 372.140,185.082 372.395,184.520 371.457 C 184.370 371.206,184.540 371.238,184.899 371.529 C 185.258 371.820,185.878 372.025,186.276 371.983 C 187.877 371.817,188.437 372.046,188.806 373.016 C 189.268 374.231,192.375 374.407,192.428 373.222 C 192.453 372.661,192.483 372.661,192.728 373.220 C 193.233 374.371,208.350 374.187,208.223 373.032 C 208.116 372.056,209.538 371.663,210.082 372.518 C 210.282 372.833,210.390 372.847,210.394 372.558 C 210.398 372.261,212.248 372.089,216.053 372.033 C 221.563 371.953,222.800 371.674,222.800 370.512 C 222.800 370.323,223.739 370.193,224.886 370.224 C 227.657 370.299,228.366 370.073,228.627 369.035 C 228.809 368.310,229.073 368.192,230.221 368.326 C 230.977 368.415,231.912 368.349,232.298 368.180 C 232.684 368.012,233.225 367.910,233.500 367.954 C 233.915 368.021,234.152 367.387,234.080 366.400 C 234.072 366.290,234.928 366.261,235.982 366.335 C 237.794 366.463,237.919 366.407,238.311 365.283 C 238.696 364.178,238.837 364.109,240.362 364.285 C 241.907 364.464,242.000 364.416,242.000 363.437 C 242.000 362.867,242.225 362.383,242.500 362.363 C 242.775 362.343,243.540 362.298,244.200 362.263 C 245.228 362.209,245.398 362.044,245.385 361.110 C 245.377 360.511,245.602 359.931,245.885 359.823 C 246.168 359.714,246.400 359.874,246.400 360.177 C 246.400 360.793,247.370 360.806,247.453 360.191 C 247.564 359.361,246.542 358.562,245.253 358.473 C 243.984 358.385,243.916 358.446,244.073 359.519 C 244.221 360.525,244.133 360.638,243.327 360.484 C 242.824 360.388,242.095 360.448,241.707 360.618 C 241.318 360.787,240.795 360.895,240.545 360.856 C 240.295 360.817,239.975 361.246,239.833 361.809 C 239.676 362.438,239.401 362.724,239.120 362.551 C 238.810 362.359,238.750 362.514,238.933 363.034 C 239.198 363.788,239.193 363.788,238.609 363.035 C 238.108 362.388,237.877 362.344,237.108 362.747 C 236.576 363.027,236.504 363.137,236.933 363.012 C 237.384 362.881,237.607 362.979,237.512 363.265 C 237.330 363.810,236.410 364.068,234.200 364.193 C 232.982 364.262,232.488 364.505,232.129 365.210 C 231.871 365.719,231.376 366.294,231.029 366.488 C 230.683 366.681,230.400 367.101,230.400 367.420 C 230.400 368.132,229.549 368.175,228.821 367.500 C 228.390 367.100,228.339 367.100,228.565 367.500 C 228.720 367.776,228.638 368.000,228.381 368.000 C 228.112 368.000,228.022 367.721,228.168 367.340 C 228.513 366.440,227.038 365.032,226.469 365.717 C 226.057 366.213,226.000 366.411,226.000 367.337 C 226.000 368.267,221.222 368.177,220.000 367.224 L 219.000 366.444 220.487 365.822 C 221.305 365.480,222.707 365.200,223.603 365.200 C 224.634 365.200,225.652 364.890,226.375 364.356 C 227.003 363.891,228.352 363.417,229.373 363.302 C 230.516 363.173,231.422 362.819,231.729 362.381 C 232.003 361.989,232.921 361.539,233.768 361.380 C 234.616 361.221,235.645 360.755,236.055 360.345 C 236.465 359.935,237.080 359.600,237.421 359.600 C 237.763 359.600,238.705 359.150,239.514 358.600 C 240.323 358.050,241.238 357.600,241.547 357.600 C 241.856 357.600,242.525 357.150,243.035 356.600 C 243.545 356.050,244.330 355.600,244.781 355.600 C 245.603 355.600,246.268 355.139,248.381 353.100 C 249.008 352.495,249.627 352.000,249.757 352.000 C 250.249 352.000,253.905 349.072,257.123 346.100 C 258.374 344.945,259.533 344.000,259.698 344.000 C 259.864 344.000,260.000 343.802,260.000 343.560 C 260.000 343.319,260.495 342.613,261.100 341.992 C 263.600 339.427,264.000 338.952,264.000 338.549 C 264.000 338.087,265.182 336.561,266.900 334.804 C 267.505 334.185,268.000 333.490,268.000 333.259 C 268.000 333.029,268.245 332.696,268.543 332.520 C 268.842 332.344,269.307 331.524,269.575 330.697 C 269.844 329.870,270.410 329.009,270.832 328.783 C 271.254 328.557,271.600 328.053,271.600 327.664 C 271.600 327.274,272.050 326.345,272.600 325.600 C 273.150 324.855,273.600 323.944,273.600 323.576 C 273.600 323.209,273.945 322.469,274.367 321.933 C 274.789 321.396,275.260 320.289,275.413 319.472 C 275.566 318.655,276.076 317.674,276.546 317.293 C 277.202 316.761,277.403 316.149,277.412 314.655 C 277.421 313.120,277.617 312.554,278.339 311.969 C 279.091 311.360,279.271 310.782,279.351 308.714 C 279.405 307.331,279.697 305.810,280.000 305.334 L 280.550 304.468 281.108 305.534 C 282.598 308.381,282.020 311.631,280.000 311.761 C 279.651 311.784,279.432 312.135,279.476 312.600 C 279.827 316.280,279.718 316.958,278.700 317.408 C 278.055 317.693,277.832 318.089,277.914 318.803 C 277.976 319.351,278.066 320.149,278.114 320.575 C 278.176 321.131,277.848 321.454,276.954 321.717 C 275.767 322.067,275.717 322.165,275.899 323.783 C 276.084 325.424,276.048 325.490,274.828 325.734 C 273.753 325.949,273.623 326.096,273.958 326.721 C 274.565 327.856,274.233 328.951,273.115 329.498 C 272.556 329.772,271.883 330.517,271.619 331.153 C 271.246 332.055,270.949 332.263,270.270 332.100 C 269.558 331.929,269.491 331.988,269.900 332.426 C 270.434 332.997,270.602 335.253,270.100 335.121 C 269.416 334.940,268.055 335.678,268.230 336.135 C 268.334 336.406,268.044 337.031,267.586 337.523 C 267.127 338.015,266.572 338.936,266.351 339.569 C 266.130 340.202,265.596 340.812,265.163 340.925 C 264.731 341.039,264.404 341.282,264.436 341.466 C 264.583 342.304,264.353 342.800,263.814 342.800 C 263.162 342.800,262.285 344.152,262.681 344.547 C 262.820 344.686,262.723 344.800,262.467 344.800 C 261.914 344.800,258.800 347.834,258.800 348.372 C 258.800 348.577,258.395 348.802,257.900 348.872 C 257.309 348.956,257.000 349.275,257.000 349.800 C 257.000 350.335,256.689 350.644,256.060 350.733 C 255.308 350.840,255.156 351.058,255.302 351.821 C 255.402 352.346,255.343 352.688,255.170 352.581 C 254.997 352.474,254.753 352.553,254.627 352.756 C 254.502 352.959,254.039 353.031,253.600 352.916 C 253.085 352.781,252.800 352.904,252.800 353.259 C 252.800 353.563,252.080 354.123,251.200 354.504 C 250.320 354.886,249.600 355.468,249.600 355.799 C 249.600 356.129,249.337 356.400,249.016 356.400 C 248.224 356.400,246.813 357.968,247.049 358.585 C 247.282 359.192,249.197 358.898,249.206 358.253 C 249.210 358.001,249.374 358.055,249.576 358.374 C 249.858 358.821,250.065 358.844,250.506 358.478 C 250.818 358.219,251.209 358.140,251.375 358.303 C 251.541 358.467,251.614 358.240,251.538 357.800 C 251.431 357.182,251.651 356.971,252.500 356.873 C 253.427 356.767,253.600 356.558,253.600 355.550 C 253.600 354.823,253.763 354.454,254.016 354.610 C 254.245 354.751,254.799 354.400,255.248 353.830 C 255.697 353.259,256.209 352.882,256.387 352.992 C 256.564 353.101,256.932 352.923,257.204 352.596 C 257.476 352.268,257.564 352.000,257.400 352.000 C 257.236 352.000,257.333 351.722,257.615 351.382 C 257.897 351.042,258.355 350.851,258.632 350.957 C 259.218 351.182,260.911 349.844,260.526 349.459 C 260.383 349.317,260.567 349.200,260.933 349.200 C 261.300 349.200,261.600 349.026,261.600 348.813 C 261.600 348.599,261.870 348.529,262.200 348.655 C 262.618 348.816,262.800 348.627,262.800 348.033 C 262.800 347.482,263.169 347.040,263.845 346.783 C 264.672 346.468,264.851 346.181,264.703 345.405 C 264.594 344.836,264.677 344.524,264.901 344.662 C 265.125 344.801,265.182 344.574,265.037 344.118 C 264.839 343.494,264.972 343.342,265.695 343.368 C 266.341 343.391,266.637 343.143,266.728 342.500 C 266.808 341.933,267.132 341.600,267.604 341.600 C 268.016 341.600,268.481 341.392,268.638 341.138 C 268.806 340.867,268.749 340.784,268.499 340.939 C 268.210 341.118,268.214 340.905,268.514 340.271 C 268.845 339.568,269.194 339.386,269.938 339.529 C 270.844 339.702,270.904 339.621,270.686 338.529 C 270.479 337.497,270.563 337.345,271.324 337.371 C 272.037 337.395,272.270 337.083,272.577 335.700 C 272.850 334.466,273.152 334.000,273.677 334.000 C 274.075 334.000,274.414 333.865,274.431 333.700 C 274.545 332.580,274.820 331.980,275.559 331.241 C 276.031 330.769,276.400 329.886,276.400 329.228 C 276.400 328.317,276.600 328.027,277.300 327.928 C 278.051 327.821,278.205 327.543,278.227 326.249 C 278.249 324.977,278.452 324.595,279.356 324.122 C 280.279 323.638,280.446 323.306,280.390 322.072 C 280.239 318.785,280.344 318.328,281.187 318.596 C 282.100 318.886,282.574 317.676,282.249 315.883 C 282.088 314.992,282.225 314.759,283.027 314.558 C 283.562 314.423,284.015 314.018,284.034 313.657 C 284.053 313.295,284.119 312.370,284.180 311.600 C 284.242 310.830,284.128 309.991,283.927 309.736 C 283.701 309.449,283.722 309.172,283.981 309.012 C 284.211 308.869,284.400 308.313,284.400 307.776 C 284.400 307.067,284.618 306.800,285.200 306.800 C 285.959 306.800,286.000 306.533,286.000 301.576 C 286.000 298.196,286.141 296.440,286.400 296.600 C 286.620 296.736,286.800 296.567,286.800 296.224 C 286.800 295.881,287.021 295.645,287.291 295.700 C 287.628 295.769,287.825 294.997,287.919 293.247 C 288.029 291.184,287.947 290.735,287.494 290.909 C 287.172 291.032,286.933 290.877,286.933 290.545 C 286.933 290.226,287.173 290.058,287.467 290.170 C 287.899 290.336,288.000 289.046,288.000 283.387 C 288.000 276.667,287.969 276.400,287.200 276.400 C 286.356 276.400,286.124 276.982,286.800 277.400 C 287.020 277.536,287.200 277.829,287.200 278.052 C 287.200 278.275,286.930 278.187,286.600 277.857 C 285.658 276.915,285.856 276.000,287.001 276.000 L 288.003 276.000 287.997 174.802 C 287.994 119.142,287.858 73.624,287.695 73.649 C 286.703 73.803,286.000 73.514,286.000 72.951 C 286.000 72.415,286.106 72.390,286.610 72.808 C 286.945 73.086,287.323 73.211,287.449 73.085 C 287.575 72.959,287.300 72.620,286.839 72.331 C 286.073 71.853,286.000 71.440,286.000 67.584 C 286.000 63.355,285.675 62.243,284.562 62.670 C 284.140 62.832,284.048 62.407,284.145 60.739 C 284.303 58.024,283.921 56.583,283.062 56.656 C 282.553 56.698,282.400 56.362,282.400 55.206 C 282.400 52.689,281.937 51.109,281.139 50.900 C 280.623 50.765,280.396 50.329,280.387 49.453 C 280.374 48.121,279.611 46.800,278.856 46.800 C 278.368 46.800,278.276 46.406,278.382 44.752 C 278.449 43.711,277.525 42.952,276.764 43.422 C 276.449 43.617,276.200 42.429,276.358 41.484 C 276.469 40.816,275.515 39.547,275.039 39.730 C 274.724 39.851,274.566 39.603,274.610 39.061 C 274.718 37.747,274.421 37.269,273.625 37.478 C 273.028 37.634,272.851 37.338,272.619 35.788 C 272.413 34.413,272.131 33.855,271.569 33.708 C 271.082 33.580,270.800 33.157,270.800 32.553 C 270.800 32.029,270.665 31.621,270.500 31.647 C 269.318 31.834,268.800 31.515,268.800 30.600 C 268.800 29.800,268.600 29.600,267.800 29.600 C 267.016 29.600,266.800 29.396,266.800 28.655 C 266.800 27.876,266.633 27.743,265.848 27.893 C 265.009 28.053,264.920 27.953,265.095 27.037 C 265.268 26.135,265.157 26.000,264.247 26.000 C 263.253 26.000,263.016 25.664,263.175 24.477 C 263.214 24.190,263.010 23.986,262.723 24.025 C 261.537 24.184,261.200 23.947,261.200 22.955 C 261.200 22.035,261.064 21.929,260.071 22.075 C 259.074 22.221,258.962 22.133,259.117 21.320 C 259.286 20.438,258.960 20.212,257.734 20.362 C 257.465 20.395,257.314 20.001,257.377 19.431 C 257.490 18.404,256.806 17.869,255.851 18.236 C 255.452 18.389,255.353 18.181,255.488 17.472 C 255.644 16.659,255.523 16.506,254.757 16.549 C 254.089 16.586,253.776 16.329,253.601 15.600 C 253.396 14.743,253.135 14.599,251.781 14.596 C 249.815 14.592,249.215 14.227,249.484 13.200 C 249.655 12.547,249.496 12.400,248.623 12.400 C 248.021 12.400,247.659 12.227,247.797 12.005 C 248.221 11.318,247.105 10.553,245.930 10.725 C 243.490 11.083,245.630 14.533,248.293 14.533 C 249.396 14.533,249.600 14.679,249.600 15.467 C 249.600 15.980,249.831 16.400,250.114 16.400 C 250.396 16.400,250.942 16.932,251.326 17.583 C 251.742 18.287,252.249 18.679,252.578 18.553 C 252.897 18.431,253.516 18.860,254.037 19.565 C 254.688 20.445,255.194 20.744,255.836 20.628 C 256.516 20.505,256.788 20.698,256.973 21.433 C 257.106 21.965,257.475 22.400,257.794 22.400 C 258.112 22.400,258.585 22.805,258.846 23.300 C 259.427 24.403,260.046 24.848,260.680 24.616 C 260.956 24.515,261.070 24.673,260.948 24.991 C 260.829 25.302,261.193 25.839,261.789 26.229 C 262.389 26.623,262.749 27.156,262.628 27.472 C 262.498 27.809,262.804 28.173,263.408 28.403 C 263.953 28.610,264.400 29.042,264.400 29.361 C 264.400 29.681,264.874 30.315,265.454 30.771 C 266.034 31.227,266.389 31.600,266.244 31.600 C 266.098 31.600,266.259 32.140,266.600 32.800 C 266.941 33.460,267.367 34.000,267.546 34.000 C 267.725 34.000,268.077 34.450,268.327 35.000 C 268.578 35.550,269.053 36.000,269.384 36.000 C 269.714 36.000,270.100 36.495,270.240 37.100 C 270.381 37.705,270.765 38.415,271.094 38.678 C 271.423 38.940,271.813 39.750,271.961 40.478 C 272.152 41.420,272.478 41.836,273.093 41.925 C 273.796 42.027,273.979 42.361,274.078 43.722 C 274.173 45.023,274.377 45.426,275.000 45.543 C 276.121 45.753,276.369 46.315,275.964 47.727 C 275.771 48.398,275.656 48.959,275.707 48.974 C 276.957 49.329,278.176 50.390,278.063 51.026 C 277.988 51.452,277.898 51.980,277.863 52.200 C 277.828 52.420,277.632 52.721,277.426 52.869 C 277.220 53.018,277.670 53.300,278.426 53.497 C 279.844 53.867,280.098 54.942,279.537 58.196 C 279.431 58.814,279.671 59.038,280.612 59.196 C 281.874 59.408,282.576 61.953,281.741 63.290 C 281.566 63.570,281.391 64.008,281.352 64.262 C 280.943 66.951,279.200 64.792,279.200 61.597 C 279.200 60.387,278.920 59.582,278.200 58.727 C 277.471 57.861,277.200 57.070,277.200 55.812 C 277.200 54.674,277.003 54.010,276.621 53.863 C 276.302 53.741,275.835 52.873,275.582 51.935 C 275.330 50.996,274.780 49.793,274.361 49.260 C 273.943 48.728,273.600 47.970,273.600 47.577 C 273.600 47.183,273.150 46.327,272.600 45.673 C 272.050 45.019,271.600 44.100,271.600 43.630 C 271.600 43.160,271.312 42.665,270.961 42.530 C 270.610 42.395,269.986 41.500,269.575 40.542 C 269.164 39.584,268.642 38.800,268.414 38.800 C 268.186 38.800,268.000 38.567,268.000 38.283 C 268.000 37.999,267.191 36.874,266.202 35.783 C 265.213 34.692,264.403 33.576,264.402 33.303 C 264.401 33.030,263.860 32.325,263.200 31.737 C 262.540 31.149,262.000 30.440,262.000 30.161 C 262.000 29.882,261.649 29.543,261.220 29.406 C 260.792 29.270,260.335 28.824,260.205 28.415 C 260.075 28.006,259.571 27.401,259.084 27.071 C 258.598 26.740,257.120 25.464,255.800 24.235 C 254.480 23.006,253.121 21.910,252.781 21.799 C 252.440 21.688,251.188 20.698,249.998 19.599 C 248.809 18.499,247.665 17.600,247.456 17.600 C 247.247 17.600,246.486 17.150,245.764 16.600 C 245.043 16.050,244.274 15.600,244.056 15.600 C 243.837 15.600,243.304 15.150,242.871 14.600 C 242.338 13.921,241.690 13.600,240.857 13.600 C 240.063 13.600,239.485 13.333,239.225 12.847 C 239.003 12.432,238.212 11.979,237.466 11.839 C 236.720 11.699,235.787 11.228,235.393 10.792 C 234.964 10.318,234.164 10.000,233.400 10.000 C 231.626 10.000,230.514 8.746,231.116 7.424 C 231.822 5.875,236.000 6.388,236.000 8.024 C 236.000 8.761,238.043 9.136,240.340 8.821 C 240.637 8.780,240.762 8.939,240.617 9.173 C 240.471 9.408,240.595 9.600,240.891 9.600 C 241.187 9.600,241.457 9.242,241.490 8.805 C 241.553 7.959,240.227 6.796,239.211 6.806 C 238.671 6.812,238.669 6.857,239.200 7.200 C 239.530 7.413,239.601 7.591,239.358 7.594 C 239.115 7.597,238.440 7.025,237.858 6.323 C 237.276 5.620,236.800 5.224,236.800 5.443 C 236.800 5.661,237.016 6.056,237.280 6.320 C 237.653 6.693,237.609 6.800,237.080 6.800 C 236.674 6.800,236.400 6.488,236.400 6.024 C 236.400 5.025,235.614 4.534,235.161 5.249 C 234.969 5.552,234.809 5.605,234.806 5.367 C 234.803 5.128,234.527 4.933,234.194 4.933 C 233.780 4.933,233.654 5.198,233.796 5.767 C 233.984 6.518,233.959 6.511,233.541 5.700 C 233.040 4.726,232.288 4.442,232.640 5.360 C 232.758 5.667,232.680 6.027,232.468 6.158 C 232.239 6.300,232.105 5.704,232.140 4.699 C 232.213 2.620,230.671 1.868,230.302 3.802 C 230.166 4.513,230.256 4.787,230.584 4.661 C 230.850 4.560,231.067 4.721,231.067 5.021 C 231.067 5.320,230.917 5.472,230.733 5.359 C 230.550 5.245,230.400 5.793,230.400 6.576 C 230.400 8.233,228.331 8.606,225.955 7.377 L 224.751 6.754 225.738 5.977 C 226.282 5.550,226.923 5.200,227.163 5.200 C 227.403 5.200,227.623 5.020,227.650 4.800 C 227.678 4.580,227.745 4.220,227.800 4.000 C 227.855 3.780,227.923 3.490,227.950 3.356 C 227.978 3.221,228.330 3.519,228.733 4.017 C 229.299 4.715,229.467 4.775,229.467 4.279 C 229.467 3.925,229.317 3.728,229.133 3.841 C 228.950 3.955,228.800 3.872,228.800 3.657 C 228.800 3.442,229.025 3.176,229.300 3.065 C 229.575 2.954,229.125 2.849,228.300 2.832 C 227.063 2.806,226.800 2.656,226.800 1.976 C 226.800 1.523,226.635 1.255,226.434 1.379 C 226.233 1.503,226.008 1.424,225.934 1.202 C 225.846 0.938,225.349 0.928,224.500 1.171 C 223.785 1.376,223.200 1.408,223.200 1.241 C 223.200 1.075,222.660 1.018,222.000 1.115 C 221.090 1.248,220.800 1.135,220.800 0.645 C 220.800 0.118,220.326 0.000,218.200 0.000 C 215.680 0.000,214.511 0.807,216.132 1.429 C 216.424 1.541,216.619 2.031,216.565 2.517 C 216.511 3.003,216.452 3.535,216.433 3.700 C 216.382 4.158,209.254 4.057,208.374 3.586 C 206.425 2.543,207.970 1.645,212.127 1.404 C 213.047 1.350,214.115 1.282,214.500 1.253 C 214.885 1.224,215.200 0.930,215.200 0.600 C 215.200 -0.219,183.795 -0.318,183.465 0.500 C 183.304 0.900,183.257 0.900,183.232 0.500 C 183.182 -0.278,182.002 -0.088,181.987 0.700 C 181.975 1.367,181.949 1.367,181.443 0.700 C 180.807 -0.138,179.415 -0.259,179.726 0.551 M191.982 2.082 C 193.734 3.176,191.944 3.922,187.200 4.075 L 183.800 4.185 183.677 2.709 L 183.554 1.232 187.359 1.402 C 189.452 1.495,191.533 1.801,191.982 2.082 M224.189 4.298 C 224.539 5.692,223.897 6.188,221.895 6.068 C 218.778 5.881,217.169 4.785,218.824 3.975 C 221.478 2.677,223.817 2.818,224.189 4.298 M181.088 3.811 C 183.073 4.641,182.128 5.656,179.055 5.994 C 176.312 6.296,176.000 6.177,176.000 4.833 C 176.000 3.008,178.138 2.578,181.088 3.811 M168.204 7.207 C 168.342 7.430,168.604 7.521,168.786 7.409 C 168.967 7.296,169.236 7.517,169.383 7.899 C 169.736 8.820,168.269 10.000,166.771 10.000 C 166.144 10.000,165.309 10.345,164.916 10.768 C 164.522 11.190,163.660 11.665,163.000 11.824 C 162.340 11.983,161.478 12.447,161.084 12.856 C 160.691 13.265,159.845 13.600,159.204 13.600 C 158.564 13.600,157.888 13.871,157.703 14.202 C 157.351 14.831,153.272 17.600,152.698 17.600 C 152.517 17.600,151.431 18.500,150.285 19.600 C 149.138 20.699,148.088 21.599,147.951 21.600 C 146.897 21.601,139.187 28.907,137.397 31.600 C 135.960 33.761,135.384 34.400,134.872 34.400 C 134.660 34.400,134.374 34.850,134.236 35.400 C 134.098 35.950,133.814 36.400,133.605 36.400 C 133.211 36.400,130.400 40.562,130.400 41.146 C 130.400 41.327,129.950 41.999,129.400 42.638 C 128.851 43.277,128.401 44.087,128.400 44.438 C 128.400 44.789,128.039 45.402,127.598 45.802 C 127.157 46.201,126.608 47.228,126.377 48.084 C 126.147 48.941,125.698 49.741,125.379 49.863 C 125.040 49.993,124.800 50.618,124.800 51.367 C 124.800 52.585,123.609 54.400,122.810 54.400 C 122.612 54.400,122.548 55.002,122.667 55.738 C 122.921 57.304,121.784 59.944,121.135 59.295 C 119.997 58.157,120.095 54.124,121.264 53.950 C 121.449 53.923,121.825 53.869,122.100 53.832 C 122.375 53.794,122.538 53.502,122.462 53.182 C 121.794 50.353,121.859 50.007,123.147 49.558 C 124.438 49.108,124.656 48.625,124.022 47.622 C 123.524 46.835,124.232 45.600,125.181 45.600 C 126.097 45.600,126.421 44.850,125.922 43.882 C 125.635 43.323,125.833 42.903,126.822 41.979 C 127.754 41.108,128.043 40.537,127.908 39.832 C 127.764 39.077,127.877 38.899,128.433 39.006 C 129.130 39.141,130.215 37.148,129.716 36.649 C 129.595 36.529,129.966 36.216,130.541 35.954 C 131.505 35.515,132.281 34.253,132.069 33.470 C 132.020 33.289,132.135 33.236,132.325 33.354 C 132.805 33.650,134.400 32.471,134.400 31.820 C 134.400 31.526,134.690 31.174,135.045 31.038 C 135.497 30.865,135.638 30.441,135.517 29.617 C 135.422 28.971,135.492 28.533,135.672 28.645 C 135.853 28.756,136.000 28.662,136.000 28.436 C 136.000 28.210,136.256 28.123,136.568 28.243 C 136.942 28.387,137.181 28.143,137.268 27.531 C 137.341 27.019,137.625 26.578,137.900 26.550 C 138.175 26.523,138.580 26.477,138.800 26.450 C 139.020 26.423,139.200 25.950,139.200 25.400 C 139.200 24.608,139.402 24.400,140.172 24.400 C 140.876 24.400,141.180 24.151,141.272 23.500 C 141.356 22.909,141.675 22.600,142.200 22.600 C 142.712 22.600,143.044 22.293,143.122 21.746 C 143.205 21.159,143.620 20.816,144.442 20.652 C 145.149 20.510,146.442 19.589,147.594 18.406 C 148.669 17.303,149.727 16.400,149.946 16.400 C 150.165 16.400,150.402 15.995,150.472 15.500 C 150.564 14.852,150.831 14.631,151.426 14.713 C 151.880 14.774,152.870 14.406,153.626 13.893 C 154.382 13.381,155.315 12.841,155.700 12.693 C 156.085 12.546,156.400 12.170,156.400 11.858 C 156.400 11.492,157.040 11.195,158.200 11.021 C 159.529 10.822,160.000 10.571,160.000 10.064 C 160.000 9.245,161.110 8.221,162.351 7.897 C 163.074 7.708,163.159 7.768,162.793 8.209 C 162.434 8.641,162.507 8.742,163.142 8.694 C 163.583 8.661,163.869 8.512,163.777 8.362 C 163.481 7.884,164.560 7.271,166.002 7.097 C 166.771 7.004,167.524 6.899,167.676 6.864 C 167.828 6.829,168.066 6.983,168.204 7.207 M241.700 9.291 C 241.755 9.560,241.395 9.843,240.900 9.918 C 239.526 10.128,239.829 10.631,241.300 10.582 C 244.272 10.484,244.251 10.494,243.292 9.600 C 242.328 8.701,241.549 8.550,241.700 9.291 M120.836 59.700 C 120.944 61.230,120.686 64.247,120.377 65.060 C 119.378 67.688,118.055 64.466,118.341 60.100 C 118.406 59.101,120.766 58.723,120.836 59.700 M114.830 62.964 C 114.509 63.350,114.494 63.611,114.781 63.788 C 115.011 63.931,115.214 63.992,115.231 63.924 C 115.619 62.355,115.524 62.128,114.830 62.964 M118.694 67.298 C 119.336 67.805,119.047 73.970,118.277 76.191 C 117.555 78.273,117.023 77.394,116.585 73.400 C 115.948 67.574,116.610 65.656,118.694 67.298 M283.755 68.407 C 283.896 69.291,283.916 70.416,283.799 70.907 C 283.681 71.398,283.519 72.610,283.439 73.600 C 282.982 79.209,281.332 76.590,281.171 70.000 C 281.089 66.623,281.024 66.800,282.349 66.800 C 283.381 66.800,283.524 66.964,283.755 68.407 M285.658 108.547 C 285.690 124.636,285.705 138.700,285.692 139.800 C 285.679 140.900,285.652 171.916,285.634 208.724 C 285.613 249.917,285.457 275.559,285.228 275.417 C 285.023 275.291,284.741 275.372,284.601 275.598 C 284.457 275.831,284.096 275.870,283.770 275.687 C 283.018 275.266,282.894 79.636,283.646 79.172 C 285.664 77.924,285.595 76.921,285.658 108.547 M116.905 185.700 C 116.802 298.985,116.923 292.396,114.981 290.784 C 114.381 290.287,114.047 82.586,114.643 81.033 C 114.779 80.677,115.348 80.400,115.943 80.400 L 117.000 80.400 116.905 185.700 M283.126 292.300 C 283.085 292.465,283.204 293.950,283.390 295.600 C 284.121 302.070,283.791 304.252,282.130 303.928 C 280.754 303.660,281.231 292.000,282.618 292.000 C 282.938 292.000,283.167 292.135,283.126 292.300 M119.048 300.636 C 119.278 303.844,119.229 304.303,118.626 304.535 C 116.945 305.180,115.873 303.598,116.231 301.000 C 116.352 300.120,116.509 298.648,116.579 297.729 C 116.650 296.810,116.949 295.512,117.244 294.846 L 117.781 293.633 118.284 295.317 C 118.560 296.242,118.904 298.636,119.048 300.636 M191.908 367.809 C 195.292 368.569,193.201 369.204,185.153 369.859 L 182.107 370.107 181.924 368.863 C 181.823 368.179,181.880 367.479,182.050 367.309 C 182.392 366.967,189.842 367.345,191.908 367.809 M218.199 367.598 C 219.292 369.367,216.917 370.881,214.495 369.960 C 213.944 369.750,212.572 369.483,211.446 369.366 C 205.183 368.714,205.135 368.641,210.200 367.477 C 211.781 367.113,217.957 367.207,218.199 367.598 M204.400 370.574 L 204.400 371.800 200.700 371.732 C 198.665 371.694,196.685 371.649,196.300 371.632 C 195.834 371.611,195.600 371.275,195.600 370.629 C 195.600 369.394,196.121 369.258,200.700 369.308 L 204.400 369.349 204.400 370.574 M208.646 373.025 C 208.514 373.368,208.678 373.732,209.024 373.865 C 209.922 374.209,210.187 373.730,209.486 373.029 C 208.944 372.487,208.852 372.486,208.646 373.025 M210.400 373.400 C 210.400 373.730,210.580 374.000,210.800 374.000 C 211.020 374.000,211.200 373.730,211.200 373.400 C 211.200 373.070,211.020 372.800,210.800 372.800 C 210.580 372.800,210.400 373.070,210.400 373.400 " stroke="none" fill="#4484f4" fill-rule="evenodd"></path><path id="path2" d="M162.880 5.680 C 162.241 6.319,162.273 6.800,162.953 6.800 C 163.258 6.800,163.601 6.440,163.716 6.000 C 163.952 5.099,163.597 4.963,162.880 5.680 M236.400 5.933 C 236.400 6.466,236.650 6.800,237.049 6.800 C 237.604 6.800,237.621 6.699,237.162 6.100 C 236.867 5.715,236.575 5.325,236.513 5.233 C 236.451 5.142,236.400 5.457,236.400 5.933 M159.200 8.200 C 158.792 8.691,158.820 8.800,159.351 8.800 C 159.708 8.800,160.000 8.530,160.000 8.200 C 160.000 7.870,159.932 7.600,159.849 7.600 C 159.766 7.600,159.474 7.870,159.200 8.200 M286.000 72.950 C 286.000 73.256,286.360 73.601,286.800 73.716 C 287.240 73.831,287.600 73.805,287.600 73.659 C 287.600 73.512,287.240 73.168,286.800 72.893 C 286.144 72.483,286.000 72.493,286.000 72.950 M286.800 296.144 C 286.800 296.531,286.620 296.736,286.400 296.600 C 286.180 296.464,286.000 296.543,286.000 296.776 C 286.000 297.332,287.076 297.324,287.422 296.765 C 287.569 296.526,287.490 296.130,287.245 295.885 C 286.918 295.558,286.800 295.627,286.800 296.144 M280.400 319.200 C 280.400 320.144,280.653 320.204,281.418 319.439 C 281.900 318.957,281.891 318.844,281.357 318.639 C 280.451 318.291,280.400 318.321,280.400 319.200 M260.579 349.566 C 260.703 349.767,260.579 350.012,260.302 350.111 C 260.026 350.210,259.945 350.445,260.122 350.634 C 260.299 350.822,260.611 350.712,260.816 350.388 C 261.308 349.609,261.295 349.200,260.776 349.200 C 260.543 349.200,260.455 349.365,260.579 349.566 M324.400 445.649 C 324.400 446.358,324.499 446.416,325.000 446.000 C 325.330 445.726,325.600 445.344,325.600 445.151 C 325.600 444.958,325.330 444.800,325.000 444.800 C 324.655 444.800,324.400 445.161,324.400 445.649 M316.800 451.200 C 316.800 452.107,317.215 452.225,317.920 451.520 C 318.625 450.815,318.507 450.400,317.600 450.400 C 317.067 450.400,316.800 450.667,316.800 451.200 M305.200 459.033 C 305.200 459.740,306.061 459.617,306.308 458.875 C 306.395 458.614,306.182 458.400,305.833 458.400 C 305.485 458.400,305.200 458.685,305.200 459.033 M170.800 484.523 L 169.400 485.000 169.298 529.500 L 169.197 574.000 199.998 574.000 L 230.800 574.000 230.800 530.429 L 230.800 486.858 229.700 485.992 C 228.656 485.171,228.374 485.144,224.200 485.463 C 214.512 486.205,186.783 485.841,179.761 484.881 C 172.415 483.876,172.666 483.886,170.800 484.523 " stroke="none" fill="#34ac54" fill-rule="evenodd"></path><path id="path3" d="M215.225 0.500 C 215.211 0.885,214.885 1.224,214.500 1.253 C 214.115 1.282,213.047 1.350,212.127 1.404 C 207.970 1.645,206.425 2.543,208.374 3.586 C 209.254 4.057,216.382 4.158,216.433 3.700 C 216.452 3.535,216.512 2.995,216.566 2.500 C 216.621 2.005,216.511 1.600,216.320 1.600 C 216.130 1.600,215.811 1.195,215.612 0.700 C 215.335 0.010,215.245 -0.036,215.225 0.500 M183.677 2.709 L 183.800 4.185 187.200 4.075 C 194.561 3.837,194.687 1.728,187.359 1.402 L 183.554 1.232 183.677 2.709 M170.284 3.600 C 170.399 4.040,170.652 4.400,170.847 4.400 C 171.041 4.400,170.840 4.760,170.400 5.200 C 168.682 6.918,169.310 8.123,171.814 7.915 C 175.099 7.643,176.035 5.628,173.042 5.272 C 172.182 5.169,172.014 4.987,172.209 4.372 C 172.352 3.921,172.266 3.600,172.003 3.600 C 171.756 3.600,171.664 3.420,171.800 3.200 C 171.939 2.975,171.617 2.800,171.061 2.800 C 170.272 2.800,170.117 2.960,170.284 3.600 M220.600 3.334 C 216.927 4.435,217.578 5.809,221.895 6.068 C 223.897 6.188,224.539 5.692,224.189 4.298 C 223.895 3.129,222.518 2.759,220.600 3.334 M229.300 3.065 C 229.025 3.176,228.800 3.442,228.800 3.657 C 228.800 3.872,228.950 3.955,229.133 3.841 C 229.317 3.728,229.467 3.925,229.467 4.279 C 229.467 4.775,229.299 4.715,228.733 4.017 C 228.330 3.519,227.978 3.221,227.950 3.356 C 227.923 3.490,227.855 3.780,227.800 4.000 C 227.745 4.220,227.678 4.580,227.650 4.800 C 227.623 5.020,227.403 5.200,227.163 5.200 C 226.923 5.200,226.282 5.550,225.738 5.977 L 224.751 6.754 225.955 7.377 C 228.331 8.606,230.400 8.233,230.400 6.576 C 230.400 5.793,230.550 5.245,230.733 5.359 C 230.917 5.472,231.067 5.320,231.067 5.021 C 231.067 4.721,230.850 4.560,230.584 4.661 C 230.258 4.787,230.165 4.516,230.298 3.823 C 230.490 2.817,230.291 2.665,229.300 3.065 M176.267 3.467 C 175.827 3.907,175.966 5.922,176.448 6.083 C 179.105 6.968,183.498 4.818,181.088 3.811 C 179.597 3.188,176.749 2.985,176.267 3.467 M231.116 7.424 C 230.514 8.746,231.626 10.000,233.400 10.000 C 234.164 10.000,234.964 10.318,235.393 10.792 C 235.787 11.228,236.720 11.699,237.466 11.839 C 238.212 11.979,239.003 12.432,239.225 12.847 C 239.485 13.333,240.063 13.600,240.857 13.600 C 241.690 13.600,242.338 13.921,242.871 14.600 C 243.304 15.150,243.837 15.600,244.056 15.600 C 244.274 15.600,245.043 16.050,245.764 16.600 C 246.486 17.150,247.247 17.600,247.456 17.600 C 247.665 17.600,248.809 18.499,249.998 19.599 C 251.188 20.698,252.440 21.688,252.781 21.799 C 253.121 21.910,254.480 23.006,255.800 24.235 C 257.120 25.464,258.598 26.740,259.084 27.071 C 259.571 27.401,260.075 28.006,260.205 28.415 C 260.335 28.824,260.792 29.270,261.220 29.406 C 261.649 29.543,262.000 29.882,262.000 30.161 C 262.000 30.440,262.540 31.149,263.200 31.737 C 263.860 32.325,264.401 33.030,264.402 33.303 C 264.403 33.576,265.213 34.692,266.202 35.783 C 267.191 36.874,268.000 37.999,268.000 38.283 C 268.000 38.567,268.186 38.800,268.414 38.800 C 268.642 38.800,269.164 39.584,269.575 40.542 C 269.986 41.500,270.610 42.395,270.961 42.530 C 271.312 42.665,271.600 43.160,271.600 43.630 C 271.600 44.100,272.050 45.019,272.600 45.673 C 273.150 46.327,273.600 47.183,273.600 47.577 C 273.600 47.970,273.943 48.728,274.361 49.260 C 274.780 49.793,275.330 50.996,275.582 51.935 C 275.835 52.873,276.302 53.741,276.621 53.863 C 277.003 54.010,277.200 54.674,277.200 55.812 C 277.200 57.070,277.471 57.861,278.200 58.727 C 278.920 59.582,279.200 60.387,279.200 61.597 C 279.200 64.792,280.943 66.951,281.352 64.262 C 281.391 64.008,281.566 63.570,281.741 63.290 C 282.576 61.953,281.874 59.408,280.612 59.196 C 279.671 59.038,279.431 58.814,279.537 58.196 C 280.098 54.942,279.844 53.867,278.426 53.497 C 277.670 53.300,277.220 53.018,277.426 52.869 C 277.632 52.721,277.862 52.240,277.937 51.800 C 278.012 51.360,278.102 50.837,278.137 50.637 C 278.184 50.364,276.471 49.191,275.707 48.974 C 275.656 48.959,275.771 48.398,275.964 47.727 C 276.369 46.315,276.121 45.753,275.000 45.543 C 274.377 45.426,274.173 45.023,274.078 43.722 C 273.979 42.361,273.796 42.027,273.093 41.925 C 272.478 41.836,272.152 41.420,271.961 40.478 C 271.813 39.750,271.423 38.940,271.094 38.678 C 270.765 38.415,270.381 37.705,270.240 37.100 C 270.100 36.495,269.714 36.000,269.384 36.000 C 269.053 36.000,268.578 35.550,268.327 35.000 C 268.077 34.450,267.725 34.000,267.546 34.000 C 267.367 34.000,266.941 33.460,266.600 32.800 C 266.259 32.140,266.098 31.600,266.244 31.600 C 266.389 31.600,266.034 31.227,265.454 30.771 C 264.874 30.315,264.400 29.681,264.400 29.361 C 264.400 29.042,263.953 28.610,263.408 28.403 C 262.804 28.173,262.498 27.809,262.628 27.472 C 262.749 27.156,262.389 26.623,261.789 26.229 C 261.193 25.839,260.829 25.302,260.948 24.991 C 261.070 24.673,260.956 24.515,260.680 24.616 C 260.046 24.848,259.427 24.403,258.846 23.300 C 258.585 22.805,258.112 22.400,257.794 22.400 C 257.475 22.400,257.106 21.965,256.973 21.433 C 256.788 20.698,256.516 20.505,255.836 20.628 C 255.194 20.744,254.688 20.445,254.037 19.565 C 253.516 18.860,252.897 18.431,252.578 18.553 C 252.249 18.679,251.742 18.287,251.326 17.583 C 250.942 16.932,250.396 16.400,250.114 16.400 C 249.831 16.400,249.600 15.980,249.600 15.467 C 249.600 14.679,249.396 14.533,248.293 14.533 C 246.506 14.533,244.629 12.807,244.896 11.410 C 245.088 10.405,245.080 10.402,242.544 10.556 C 241.145 10.641,240.000 10.551,240.000 10.355 C 240.000 10.160,240.349 10.000,240.776 10.000 C 241.719 10.000,242.191 9.365,241.545 8.966 C 241.252 8.785,241.184 8.850,241.362 9.138 C 241.533 9.415,241.387 9.600,241.000 9.600 C 240.643 9.600,240.471 9.408,240.617 9.173 C 240.762 8.939,240.637 8.780,240.340 8.821 C 238.043 9.136,236.000 8.761,236.000 8.024 C 236.000 6.388,231.822 5.875,231.116 7.424 M166.002 7.097 C 164.560 7.271,163.481 7.884,163.777 8.362 C 163.869 8.512,163.583 8.661,163.142 8.694 C 162.507 8.742,162.434 8.641,162.793 8.209 C 163.159 7.768,163.074 7.708,162.351 7.897 C 161.110 8.221,160.000 9.245,160.000 10.064 C 160.000 10.571,159.529 10.822,158.200 11.021 C 157.103 11.185,156.400 11.499,156.400 11.824 C 156.400 12.329,156.029 12.586,152.862 14.272 C 151.567 14.962,151.506 14.960,150.962 14.216 C 150.653 13.793,150.400 13.661,150.400 13.924 C 150.400 14.186,150.119 14.400,149.776 14.400 C 149.433 14.400,149.269 14.589,149.412 14.819 C 149.593 15.112,149.826 15.110,150.181 14.816 C 150.577 14.488,150.648 14.617,150.499 15.397 C 150.393 15.948,150.136 16.400,149.927 16.400 C 149.719 16.400,148.669 17.303,147.594 18.406 C 146.442 19.589,145.149 20.510,144.442 20.652 C 143.620 20.816,143.205 21.159,143.122 21.746 C 143.044 22.293,142.712 22.600,142.200 22.600 C 141.675 22.600,141.356 22.909,141.272 23.500 C 141.180 24.151,140.876 24.400,140.172 24.400 C 139.402 24.400,139.200 24.608,139.200 25.400 C 139.200 25.950,139.020 26.423,138.800 26.450 C 138.580 26.477,138.175 26.523,137.900 26.550 C 137.625 26.578,137.341 27.019,137.268 27.531 C 137.181 28.143,136.942 28.387,136.568 28.243 C 136.256 28.123,136.000 28.210,136.000 28.436 C 136.000 28.662,135.853 28.756,135.672 28.645 C 135.492 28.533,135.422 28.971,135.517 29.617 C 135.638 30.441,135.497 30.865,135.045 31.038 C 134.690 31.174,134.400 31.526,134.400 31.820 C 134.400 32.471,132.805 33.650,132.325 33.354 C 132.135 33.236,132.020 33.289,132.069 33.470 C 132.281 34.253,131.505 35.515,130.541 35.954 C 129.966 36.216,129.595 36.529,129.716 36.649 C 130.215 37.148,129.130 39.141,128.433 39.006 C 127.877 38.899,127.764 39.077,127.908 39.832 C 128.043 40.537,127.754 41.108,126.822 41.979 C 125.833 42.903,125.635 43.323,125.922 43.882 C 126.421 44.850,126.097 45.600,125.181 45.600 C 124.232 45.600,123.524 46.835,124.022 47.622 C 124.656 48.625,124.438 49.108,123.147 49.558 C 121.859 50.007,121.794 50.353,122.462 53.182 C 122.538 53.502,122.375 53.794,122.100 53.832 C 121.825 53.869,121.449 53.923,121.264 53.950 C 120.095 54.124,119.997 58.157,121.135 59.295 C 121.784 59.944,122.921 57.304,122.667 55.738 C 122.548 55.002,122.612 54.400,122.810 54.400 C 123.609 54.400,124.800 52.585,124.800 51.367 C 124.800 50.618,125.040 49.993,125.379 49.863 C 125.698 49.741,126.147 48.941,126.377 48.084 C 126.608 47.228,127.157 46.201,127.598 45.802 C 128.039 45.402,128.400 44.789,128.400 44.438 C 128.401 44.087,128.851 43.277,129.400 42.638 C 129.950 41.999,130.400 41.327,130.400 41.146 C 130.400 40.562,133.211 36.400,133.605 36.400 C 133.814 36.400,134.098 35.950,134.236 35.400 C 134.374 34.850,134.660 34.400,134.872 34.400 C 135.384 34.400,135.960 33.761,137.397 31.600 C 139.187 28.907,146.897 21.601,147.951 21.600 C 148.088 21.599,149.138 20.699,150.285 19.600 C 151.431 18.500,152.517 17.600,152.698 17.600 C 153.272 17.600,157.351 14.831,157.703 14.202 C 157.888 13.871,158.564 13.600,159.204 13.600 C 159.845 13.600,160.691 13.265,161.084 12.856 C 161.478 12.447,162.340 11.983,163.000 11.824 C 163.660 11.665,164.522 11.190,164.916 10.768 C 165.309 10.345,166.144 10.000,166.771 10.000 C 168.269 10.000,169.736 8.820,169.383 7.899 C 169.236 7.517,168.967 7.296,168.786 7.409 C 168.604 7.521,168.342 7.430,168.204 7.207 C 168.066 6.983,167.828 6.829,167.676 6.864 C 167.524 6.899,166.771 7.004,166.002 7.097 M242.800 9.157 C 242.800 9.354,243.070 9.618,243.400 9.745 C 243.765 9.885,244.000 9.745,244.000 9.387 C 244.000 9.064,243.730 8.800,243.400 8.800 C 243.070 8.800,242.800 8.961,242.800 9.157 M118.341 60.100 C 118.055 64.466,119.378 67.688,120.377 65.060 C 120.686 64.247,120.944 61.230,120.836 59.700 C 120.766 58.723,118.406 59.101,118.341 60.100 M115.002 63.998 C 114.603 64.439,114.407 64.800,114.567 64.800 C 114.988 64.800,116.128 63.595,115.912 63.379 C 115.811 63.278,115.402 63.556,115.002 63.998 M116.537 67.421 C 116.032 68.736,116.588 75.623,117.309 76.991 C 117.686 77.707,117.778 77.630,118.277 76.191 C 119.047 73.970,119.336 67.805,118.694 67.298 C 118.012 66.761,116.763 66.832,116.537 67.421 M281.154 67.100 C 280.992 68.155,281.302 72.942,281.646 74.700 C 282.258 77.829,283.138 77.289,283.439 73.600 C 283.519 72.610,283.681 71.398,283.799 70.907 C 284.297 68.820,283.584 66.800,282.349 66.800 C 281.717 66.800,281.179 66.935,281.154 67.100 M283.646 79.172 C 282.894 79.636,283.018 275.266,283.770 275.687 C 284.096 275.870,284.457 275.831,284.601 275.598 C 284.741 275.372,285.023 275.291,285.228 275.417 C 285.457 275.559,285.613 249.917,285.634 208.724 C 285.652 171.916,285.679 140.900,285.692 139.800 C 286.010 113.633,285.530 79.275,284.844 79.096 C 284.429 78.987,283.889 79.021,283.646 79.172 M114.643 81.033 C 114.047 82.586,114.381 290.287,114.981 290.784 C 116.923 292.396,116.802 298.985,116.905 185.700 L 117.000 80.400 115.943 80.400 C 115.348 80.400,114.779 80.677,114.643 81.033 M286.000 276.629 C 286.000 276.974,286.270 277.527,286.600 277.857 C 286.930 278.187,287.200 278.275,287.200 278.052 C 287.200 277.829,287.020 277.536,286.800 277.400 C 286.123 276.982,286.355 276.464,287.300 276.282 C 288.072 276.134,288.043 276.101,287.100 276.054 C 286.344 276.017,286.000 276.196,286.000 276.629 M281.719 293.500 C 281.044 296.687,281.324 303.771,282.130 303.928 C 283.791 304.252,284.121 302.070,283.390 295.600 C 283.204 293.950,283.085 292.465,283.126 292.300 C 283.167 292.135,282.938 292.000,282.618 292.000 C 282.269 292.000,281.909 292.600,281.719 293.500 M117.244 294.846 C 116.949 295.512,116.650 296.810,116.579 297.729 C 116.509 298.648,116.352 300.120,116.231 301.000 C 115.873 303.598,116.945 305.180,118.626 304.535 C 119.423 304.229,119.207 298.407,118.284 295.317 L 117.781 293.633 117.244 294.846 M280.000 305.334 C 279.697 305.810,279.405 307.331,279.351 308.714 C 279.271 310.782,279.091 311.360,278.339 311.969 C 277.617 312.554,277.421 313.120,277.412 314.655 C 277.403 316.149,277.202 316.761,276.546 317.293 C 276.076 317.674,275.566 318.655,275.413 319.472 C 275.260 320.289,274.789 321.396,274.367 321.933 C 273.945 322.469,273.600 323.209,273.600 323.576 C 273.600 323.944,273.150 324.855,272.600 325.600 C 272.050 326.345,271.600 327.274,271.600 327.664 C 271.600 328.053,271.254 328.557,270.832 328.783 C 270.410 329.009,269.844 329.870,269.575 330.697 C 269.307 331.524,268.842 332.344,268.543 332.520 C 268.245 332.696,268.000 333.029,268.000 333.259 C 268.000 333.490,267.505 334.185,266.900 334.804 C 265.182 336.561,264.000 338.087,264.000 338.549 C 264.000 338.952,263.600 339.427,261.100 341.992 C 260.495 342.613,260.000 343.319,260.000 343.560 C 260.000 343.802,259.864 344.000,259.698 344.000 C 259.533 344.000,258.374 344.945,257.123 346.100 C 253.905 349.072,250.249 352.000,249.757 352.000 C 249.627 352.000,249.008 352.495,248.381 353.100 C 246.268 355.139,245.603 355.600,244.781 355.600 C 244.330 355.600,243.545 356.050,243.035 356.600 C 242.525 357.150,241.856 357.600,241.547 357.600 C 241.238 357.600,240.323 358.050,239.514 358.600 C 238.705 359.150,237.763 359.600,237.421 359.600 C 237.080 359.600,236.465 359.935,236.055 360.345 C 235.645 360.755,234.616 361.221,233.768 361.380 C 232.921 361.539,232.003 361.989,231.729 362.381 C 231.422 362.819,230.516 363.173,229.373 363.302 C 228.352 363.417,227.003 363.891,226.375 364.356 C 225.652 364.890,224.634 365.200,223.603 365.200 C 222.707 365.200,221.305 365.480,220.487 365.822 L 219.000 366.444 220.000 367.224 C 221.219 368.175,225.964 368.264,226.050 367.337 C 226.223 365.477,226.699 365.075,227.664 365.973 C 228.129 366.407,228.358 366.945,228.191 367.214 C 228.030 367.476,228.120 367.827,228.393 367.996 C 229.085 368.423,230.400 368.016,230.400 367.373 C 230.400 367.080,230.683 366.681,231.029 366.488 C 231.376 366.294,231.871 365.719,232.129 365.210 C 232.488 364.505,232.982 364.262,234.200 364.193 C 236.410 364.068,237.330 363.810,237.512 363.265 C 237.607 362.979,237.384 362.881,236.933 363.012 C 236.504 363.137,236.576 363.027,237.108 362.747 C 237.877 362.344,238.108 362.388,238.609 363.035 C 239.193 363.788,239.198 363.788,238.933 363.034 C 238.750 362.514,238.810 362.359,239.120 362.551 C 239.401 362.724,239.676 362.438,239.833 361.809 C 239.975 361.246,240.295 360.817,240.545 360.856 C 240.795 360.895,241.318 360.787,241.707 360.618 C 242.095 360.448,242.824 360.388,243.327 360.484 C 244.133 360.638,244.221 360.525,244.073 359.519 C 243.865 358.101,246.095 358.012,247.324 359.389 C 248.032 360.183,248.034 360.178,247.426 359.173 C 246.746 358.051,247.692 356.400,249.016 356.400 C 249.337 356.400,249.600 356.129,249.600 355.799 C 249.600 355.468,250.320 354.886,251.200 354.504 C 252.080 354.123,252.800 353.563,252.800 353.259 C 252.800 352.904,253.085 352.781,253.600 352.916 C 254.039 353.031,254.502 352.959,254.627 352.756 C 254.753 352.553,254.997 352.474,255.170 352.581 C 255.343 352.688,255.402 352.346,255.302 351.821 C 255.156 351.058,255.308 350.840,256.060 350.733 C 256.689 350.644,257.000 350.335,257.000 349.800 C 257.000 349.275,257.309 348.956,257.900 348.872 C 258.395 348.802,258.800 348.577,258.800 348.372 C 258.800 347.834,261.914 344.800,262.467 344.800 C 262.723 344.800,262.820 344.686,262.681 344.547 C 262.285 344.152,263.162 342.800,263.814 342.800 C 264.353 342.800,264.583 342.304,264.436 341.466 C 264.404 341.282,264.731 341.039,265.163 340.925 C 265.596 340.812,266.130 340.202,266.351 339.569 C 266.572 338.936,267.127 338.015,267.586 337.523 C 268.044 337.031,268.334 336.406,268.230 336.135 C 268.055 335.678,269.416 334.940,270.100 335.121 C 270.602 335.253,270.434 332.997,269.900 332.426 C 269.491 331.988,269.558 331.929,270.270 332.100 C 270.949 332.263,271.246 332.055,271.619 331.153 C 271.883 330.517,272.556 329.772,273.115 329.498 C 274.233 328.951,274.565 327.856,273.958 326.721 C 273.623 326.096,273.753 325.949,274.828 325.734 C 276.048 325.490,276.084 325.424,275.899 323.783 C 275.717 322.165,275.767 322.068,276.954 321.719 C 277.962 321.422,278.178 321.166,278.086 320.376 C 278.024 319.839,277.934 319.042,277.886 318.604 C 277.833 318.111,278.142 317.657,278.700 317.409 C 279.718 316.958,279.827 316.279,279.476 312.600 C 279.432 312.135,279.651 311.784,280.000 311.761 C 282.020 311.631,282.598 308.381,281.108 305.534 L 280.550 304.468 280.000 305.334 M118.985 306.025 C 118.841 306.258,118.648 307.023,118.556 307.725 C 118.465 308.426,118.308 309.488,118.208 310.085 C 118.001 311.320,118.849 312.400,120.026 312.400 C 120.808 312.400,120.842 313.266,120.178 316.309 C 119.980 317.219,121.330 318.184,122.134 317.708 C 122.318 317.599,122.342 318.528,122.186 319.771 C 122.031 321.015,122.060 322.004,122.252 321.969 C 123.828 321.682,124.220 322.015,124.076 323.520 C 123.951 324.831,124.072 325.104,124.954 325.506 C 125.790 325.887,125.967 326.231,125.923 327.388 C 125.871 328.787,126.120 329.353,126.833 329.450 C 127.035 329.478,127.380 329.523,127.600 329.550 C 127.820 329.578,128.000 330.187,128.000 330.904 C 128.000 331.774,128.266 332.374,128.800 332.707 C 129.240 332.982,129.600 333.569,129.600 334.012 C 129.600 334.465,130.004 335.001,130.523 335.238 C 131.031 335.469,131.670 336.140,131.942 336.729 C 133.157 339.358,134.108 340.800,134.625 340.800 C 134.933 340.800,135.295 341.240,135.430 341.777 C 135.579 342.372,136.013 342.802,136.538 342.877 C 137.079 342.954,137.448 343.335,137.528 343.900 C 137.598 344.395,137.919 344.800,138.240 344.800 C 138.562 344.800,138.944 345.115,139.090 345.500 C 139.448 346.445,140.248 347.219,140.552 346.914 C 140.783 346.684,140.959 347.404,140.845 348.107 C 140.817 348.277,141.246 348.620,141.798 348.872 C 142.950 349.397,143.134 350.649,142.100 350.934 C 141.715 351.040,142.165 351.030,143.100 350.912 C 144.731 350.706,144.800 350.741,144.800 351.772 C 144.800 352.417,144.967 352.744,145.218 352.589 C 145.447 352.447,146.122 352.656,146.718 353.053 C 147.313 353.450,147.997 353.734,148.238 353.684 C 148.965 353.533,152.055 356.923,151.900 357.700 C 151.845 357.975,152.025 358.155,152.300 358.100 C 152.575 358.045,152.800 358.202,152.800 358.449 C 152.800 358.779,152.942 358.780,153.337 358.452 C 153.632 358.207,154.002 358.135,154.158 358.291 C 154.315 358.448,154.838 358.581,155.321 358.588 C 155.830 358.595,156.200 358.852,156.200 359.200 C 156.200 359.530,156.429 359.946,156.708 360.125 C 156.988 360.303,157.097 360.663,156.950 360.925 C 156.766 361.252,156.850 361.244,157.221 360.900 C 158.149 360.039,159.581 360.297,160.000 361.400 C 160.209 361.950,160.565 362.400,160.790 362.400 C 161.016 362.400,161.179 362.535,161.153 362.700 C 160.999 363.674,161.353 363.924,162.900 363.931 C 167.375 363.952,167.954 364.091,168.081 365.178 C 168.206 366.251,169.203 366.424,172.598 365.963 C 173.361 365.859,173.815 365.982,173.848 366.300 C 173.877 366.575,173.923 367.070,173.950 367.400 C 174.032 368.389,178.983 368.234,180.084 367.208 L 180.934 366.415 179.480 365.808 C 178.680 365.473,177.293 365.200,176.397 365.200 C 175.375 365.200,174.349 364.890,173.645 364.370 C 173.028 363.914,171.730 363.435,170.761 363.307 C 169.730 363.171,168.788 362.775,168.489 362.353 C 168.207 361.956,167.307 361.509,166.489 361.358 C 165.670 361.207,164.571 360.750,164.046 360.342 C 163.521 359.934,162.801 359.600,162.446 359.600 C 162.091 359.599,161.277 359.149,160.638 358.600 C 159.999 358.050,159.119 357.600,158.684 357.600 C 158.248 357.600,157.475 357.150,156.965 356.600 C 156.455 356.050,155.678 355.600,155.237 355.600 C 154.510 355.600,153.887 355.142,151.386 352.772 C 150.938 352.347,150.353 352.000,150.086 352.000 C 149.819 352.000,149.600 351.859,149.600 351.686 C 149.600 351.514,149.071 351.060,148.426 350.679 C 146.336 349.444,138.000 341.599,138.000 340.867 C 138.000 340.632,137.720 340.283,137.378 340.092 C 137.036 339.900,136.451 339.285,136.078 338.726 C 133.952 335.533,133.142 334.448,131.842 333.050 C 131.049 332.197,130.400 331.171,130.400 330.770 C 130.400 330.369,129.950 329.556,129.400 328.962 C 128.850 328.369,128.400 327.647,128.400 327.359 C 128.400 327.071,127.950 326.172,127.400 325.362 C 126.850 324.551,126.400 323.671,126.400 323.406 C 126.400 323.141,126.040 322.598,125.600 322.200 C 125.160 321.802,124.800 320.989,124.800 320.394 C 124.800 319.799,124.350 318.649,123.800 317.838 C 123.250 317.028,122.800 315.804,122.800 315.120 C 122.800 314.409,122.371 313.314,121.800 312.564 C 121.076 311.615,120.800 310.757,120.800 309.453 C 120.800 306.606,119.797 304.711,118.985 306.025 M153.100 359.465 C 153.375 359.576,153.600 359.842,153.600 360.057 C 153.600 360.272,153.375 360.318,153.100 360.159 C 152.825 360.001,152.739 360.024,152.908 360.211 C 153.078 360.397,153.573 360.576,154.010 360.608 C 154.754 360.663,154.762 360.621,154.140 359.933 C 153.775 359.530,153.279 359.214,153.038 359.232 C 152.785 359.250,152.811 359.348,153.100 359.465 M245.657 359.963 C 245.255 360.213,245.236 360.375,245.584 360.590 C 246.133 360.929,246.545 360.629,246.342 360.038 C 246.258 359.796,245.976 359.765,245.657 359.963 M241.600 361.620 C 241.600 361.778,241.947 361.997,242.370 362.108 C 242.869 362.238,243.074 362.137,242.953 361.821 C 242.755 361.304,241.600 361.133,241.600 361.620 M182.050 367.309 C 181.880 367.479,181.823 368.179,181.924 368.863 L 182.107 370.107 185.153 369.859 C 193.201 369.204,195.292 368.569,191.908 367.809 C 189.842 367.345,182.392 366.967,182.050 367.309 M210.200 367.477 C 205.135 368.641,205.183 368.714,211.446 369.366 C 212.572 369.483,213.944 369.750,214.495 369.960 C 216.917 370.881,219.292 369.367,218.199 367.598 C 217.957 367.207,211.781 367.113,210.200 367.477 M168.160 367.894 C 168.562 368.296,170.400 368.476,170.399 368.114 C 170.399 367.941,169.834 367.760,169.144 367.712 C 168.455 367.663,168.012 367.745,168.160 367.894 M196.300 369.463 C 195.879 369.581,195.600 370.046,195.600 370.629 C 195.600 371.275,195.834 371.611,196.300 371.632 C 196.685 371.649,198.665 371.694,200.700 371.732 L 204.400 371.800 204.400 370.574 L 204.400 369.349 200.700 369.308 C 198.665 369.286,196.685 369.356,196.300 369.463 M208.198 372.873 C 208.227 373.264,208.389 373.722,208.559 373.892 C 208.728 374.061,208.830 374.020,208.786 373.800 C 208.559 372.676,208.808 372.350,209.423 372.966 C 210.078 373.621,211.363 373.007,210.908 372.257 C 210.794 372.069,210.545 372.159,210.356 372.457 C 210.107 372.850,210.011 372.863,210.006 372.504 C 210.003 372.232,209.583 372.043,209.073 372.086 C 208.457 372.137,208.163 372.401,208.198 372.873 " stroke="none" fill="#448cfb" fill-rule="evenodd"></path><path id="path4" d="" stroke="none" fill="#4c94fc" fill-rule="evenodd"></path></g></svg>